<?xml version="1.0" encoding="us-ascii" standalone="no"?><svg xmlns="http://www.w3.org/2000/svg" xmlns:xlink="http://www.w3.org/1999/xlink" contentStyleType="text/css" height="182px" preserveAspectRatio="none" style="width:318px;height:182px;background:#FFFFFF;" version="1.1" viewBox="0 0 318 182" width="318px" zoomAndPan="magnify"><defs/><g><!--entity api--><g id="elem_api"><rect fill="#F1F1F1" height="46.2969" rx="2.5" ry="2.5" style="stroke:#181818;stroke-width:0.5;" width="129" x="91.5" y="7"/><rect fill="#F1F1F1" height="10" style="stroke:#181818;stroke-width:0.5;" width="15" x="200.5" y="12"/><rect fill="#F1F1F1" height="2" style="stroke:#181818;stroke-width:0.5;" width="4" x="198.5" y="14"/><rect fill="#F1F1F1" height="2" style="stroke:#181818;stroke-width:0.5;" width="4" x="198.5" y="18"/><text fill="#000000" font-family="sans-serif" font-size="14" lengthAdjust="spacing" textLength="89" x="106.5" y="39.9951">API Gateway</text></g><!--entity User Service--><g id="elem_User Service"><rect fill="#F1F1F1" height="46.2969" rx="2.5" ry="2.5" style="stroke:#181818;stroke-width:0.5;" width="128" x="7" y="130"/><rect fill="#F1F1F1" height="10" style="stroke:#181818;stroke-width:0.5;" width="15" x="115" y="135"/><rect fill="#F1F1F1" height="2" style="stroke:#181818;stroke-width:0.5;" width="4" x="113" y="137"/><rect fill="#F1F1F1" height="2" style="stroke:#181818;stroke-width:0.5;" width="4" x="113" y="141"/><text fill="#000000" font-family="sans-serif" font-size="14" lengthAdjust="spacing" textLength="88" x="22" y="162.9951">User Service</text></g><!--entity Badge Service--><g id="elem_Badge Service"><rect fill="#F1F1F1" height="46.2969" rx="2.5" ry="2.5" style="stroke:#181818;stroke-width:0.5;" width="142" x="170" y="130"/><rect fill="#F1F1F1" height="10" style="stroke:#181818;stroke-width:0.5;" width="15" x="292" y="135"/><rect fill="#F1F1F1" height="2" style="stroke:#181818;stroke-width:0.5;" width="4" x="290" y="137"/><rect fill="#F1F1F1" height="2" style="stroke:#181818;stroke-width:0.5;" width="4" x="290" y="141"/><text fill="#000000" font-family="sans-serif" font-size="14" lengthAdjust="spacing" textLength="102" x="185" y="162.9951">Badge Service</text></g><!--link api to User Service--><g id="link_api_User Service"><path d="M140.41,53.193 C125.073,75.026 105.2429,103.2542 89.9404,125.0377 " fill="none" id="api-to-User Service" style="stroke:#181818;stroke-width:1.0;"/><polygon fill="#181818" points="86.4915,129.9474,94.938,124.8822,89.3656,125.856,88.3918,120.2836,86.4915,129.9474" style="stroke:#181818;stroke-width:1.0;"/><text fill="#000000" font-family="sans-serif" font-size="13" lengthAdjust="spacing" textLength="32" x="120" y="96.0669">tests</text></g><!--link api to Badge Service--><g id="link_api_Badge Service"><path d="M171.59,53.193 C186.927,75.026 206.757,103.2543 222.06,125.0378 " fill="none" id="api-to-Badge Service" style="stroke:#181818;stroke-width:1.0;"/><polygon fill="#181818" points="225.509,129.9474,223.6085,120.2836,222.6348,125.8561,217.0624,124.8823,225.509,129.9474" style="stroke:#181818;stroke-width:1.0;"/><text fill="#000000" font-family="sans-serif" font-size="13" lengthAdjust="spacing" textLength="32" x="204" y="96.0669">tests</text></g><!--SRC=[YtOCy5HmJon9BK-iZ5L8B5P8BCZauW8IkYdvvNcwTj6XnQb52i6fHMMPoQcn2bOA9Qd59SN82fmIKz9JCLG00000]--></g></svg>