<?xml version="1.0" encoding="us-ascii" standalone="no"?><svg xmlns="http://www.w3.org/2000/svg" xmlns:xlink="http://www.w3.org/1999/xlink" contentStyleType="text/css" height="1727px" preserveAspectRatio="none" style="width:1346px;height:1727px;background:#FFFFFF;" version="1.1" viewBox="0 0 1346 1727" width="1346px" zoomAndPan="magnify"><defs/><g><!--class Educator--><g id="elem_Educator"><rect codeLine="4" fill="#F1F1F1" height="48" id="Educator" rx="2.5" ry="2.5" style="stroke:#181818;stroke-width:0.5;" width="96" x="189.1282" y="744.5"/><ellipse cx="204.1282" cy="760.5" fill="#ADD1B2" rx="11" ry="11" style="stroke:#181818;stroke-width:1.0;"/><path d="M206.472,756.1719 C205.5345,755.7344 204.9407,755.5938 204.0657,755.5938 C201.4407,755.5938 199.4407,757.6719 199.4407,760.3906 L199.4407,761.5156 C199.4407,764.0938 201.5501,765.9844 204.4407,765.9844 C205.6595,765.9844 206.8157,765.6875 207.5657,765.1406 C208.1438,764.7344 208.472,764.2813 208.472,763.8906 C208.472,763.4375 208.0813,763.0469 207.6126,763.0469 C207.3938,763.0469 207.1907,763.125 207.0032,763.3125 C206.5501,763.7969 206.5501,763.7969 206.3626,763.8906 C205.9407,764.1563 205.2532,764.2813 204.4876,764.2813 C202.4407,764.2813 201.1438,763.1875 201.1438,761.4844 L201.1438,760.3906 C201.1438,758.6094 202.3938,757.2969 204.1282,757.2969 C204.7063,757.2969 205.3157,757.4531 205.7845,757.7031 C206.2688,757.9844 206.4407,758.2031 206.5345,758.6094 C206.597,759.0156 206.6282,759.1406 206.7688,759.2656 C206.9095,759.4063 207.1438,759.5156 207.3626,759.5156 C207.6282,759.5156 207.8938,759.375 208.0657,759.1563 C208.1751,759 208.2063,758.8125 208.2063,758.3906 L208.2063,756.9688 C208.2063,756.5313 208.1907,756.4063 208.097,756.25 C207.9407,755.9844 207.6595,755.8438 207.3626,755.8438 C207.0657,755.8438 206.8626,755.9375 206.6438,756.25 L206.472,756.1719 Z " fill="#000000"/><text fill="#000000" font-family="sans-serif" font-size="14" lengthAdjust="spacing" textLength="64" x="218.1282" y="765.3467">Educator</text><line style="stroke:#181818;stroke-width:0.5;" x1="190.1282" x2="284.1282" y1="776.5" y2="776.5"/><line style="stroke:#181818;stroke-width:0.5;" x1="190.1282" x2="284.1282" y1="784.5" y2="784.5"/></g><!--class Student--><g id="elem_Student"><rect codeLine="7" fill="#F1F1F1" height="48" id="Student" rx="2.5" ry="2.5" style="stroke:#181818;stroke-width:0.5;" width="90" x="817.1282" y="15"/><ellipse cx="832.1282" cy="31" fill="#ADD1B2" rx="11" ry="11" style="stroke:#181818;stroke-width:1.0;"/><path d="M834.472,26.6719 C833.5345,26.2344 832.9407,26.0938 832.0657,26.0938 C829.4407,26.0938 827.4407,28.1719 827.4407,30.8906 L827.4407,32.0156 C827.4407,34.5938 829.5501,36.4844 832.4407,36.4844 C833.6595,36.4844 834.8157,36.1875 835.5657,35.6406 C836.1438,35.2344 836.472,34.7813 836.472,34.3906 C836.472,33.9375 836.0813,33.5469 835.6126,33.5469 C835.3938,33.5469 835.1907,33.625 835.0032,33.8125 C834.5501,34.2969 834.5501,34.2969 834.3626,34.3906 C833.9407,34.6563 833.2532,34.7813 832.4876,34.7813 C830.4407,34.7813 829.1438,33.6875 829.1438,31.9844 L829.1438,30.8906 C829.1438,29.1094 830.3938,27.7969 832.1282,27.7969 C832.7063,27.7969 833.3157,27.9531 833.7845,28.2031 C834.2688,28.4844 834.4407,28.7031 834.5345,29.1094 C834.597,29.5156 834.6282,29.6406 834.7688,29.7656 C834.9095,29.9063 835.1438,30.0156 835.3626,30.0156 C835.6282,30.0156 835.8938,29.875 836.0657,29.6563 C836.1751,29.5 836.2063,29.3125 836.2063,28.8906 L836.2063,27.4688 C836.2063,27.0313 836.1907,26.9063 836.097,26.75 C835.9407,26.4844 835.6595,26.3438 835.3626,26.3438 C835.0657,26.3438 834.8626,26.4375 834.6438,26.75 L834.472,26.6719 Z " fill="#000000"/><text fill="#000000" font-family="sans-serif" font-size="14" lengthAdjust="spacing" textLength="58" x="846.1282" y="35.8467">Student</text><line style="stroke:#181818;stroke-width:0.5;" x1="818.1282" x2="906.1282" y1="47" y2="47"/><line style="stroke:#181818;stroke-width:0.5;" x1="818.1282" x2="906.1282" y1="55" y2="55"/></g><polygon fill="#F1F1F1" points="989.1282,27,1001.1282,39,989.1282,51,977.1282,39,989.1282,27" style="stroke:#181818;stroke-width:0.5;"/><!--class Invite--><g id="elem_Invite"><rect codeLine="19" fill="#F1F1F1" height="64.2969" id="Invite" rx="2.5" ry="2.5" style="stroke:#181818;stroke-width:0.5;" width="154" x="1148.1332" y="7"/><ellipse cx="1200.3832" cy="23" fill="#ADD1B2" rx="11" ry="11" style="stroke:#181818;stroke-width:1.0;"/><path d="M1202.727,18.6719 C1201.7895,18.2344 1201.1957,18.0938 1200.3207,18.0938 C1197.6957,18.0938 1195.6957,20.1719 1195.6957,22.8906 L1195.6957,24.0156 C1195.6957,26.5938 1197.8051,28.4844 1200.6957,28.4844 C1201.9145,28.4844 1203.0707,28.1875 1203.8207,27.6406 C1204.3988,27.2344 1204.727,26.7813 1204.727,26.3906 C1204.727,25.9375 1204.3363,25.5469 1203.8676,25.5469 C1203.6488,25.5469 1203.4457,25.625 1203.2582,25.8125 C1202.8051,26.2969 1202.8051,26.2969 1202.6176,26.3906 C1202.1957,26.6563 1201.5082,26.7813 1200.7426,26.7813 C1198.6957,26.7813 1197.3988,25.6875 1197.3988,23.9844 L1197.3988,22.8906 C1197.3988,21.1094 1198.6488,19.7969 1200.3832,19.7969 C1200.9613,19.7969 1201.5707,19.9531 1202.0395,20.2031 C1202.5238,20.4844 1202.6957,20.7031 1202.7895,21.1094 C1202.852,21.5156 1202.8832,21.6406 1203.0238,21.7656 C1203.1645,21.9063 1203.3988,22.0156 1203.6176,22.0156 C1203.8832,22.0156 1204.1488,21.875 1204.3207,21.6563 C1204.4301,21.5 1204.4613,21.3125 1204.4613,20.8906 L1204.4613,19.4688 C1204.4613,19.0313 1204.4457,18.9063 1204.352,18.75 C1204.1957,18.4844 1203.9145,18.3438 1203.6176,18.3438 C1203.3207,18.3438 1203.1176,18.4375 1202.8988,18.75 L1202.727,18.6719 Z " fill="#000000"/><text fill="#000000" font-family="sans-serif" font-size="14" lengthAdjust="spacing" textLength="41" x="1220.8832" y="27.8467">Invite</text><line style="stroke:#181818;stroke-width:0.5;" x1="1149.1332" x2="1301.1332" y1="39" y2="39"/><ellipse cx="1159.1332" cy="52.6484" fill="none" rx="3" ry="3" style="stroke:#038048;stroke-width:1.0;"/><text fill="#000000" font-family="sans-serif" font-size="14" lengthAdjust="spacing" textLength="128" x="1168.1332" y="55.9951">state: InviteState</text><line style="stroke:#181818;stroke-width:0.5;" x1="1149.1332" x2="1301.1332" y1="63.2969" y2="63.2969"/></g><!--class TeamParticipation--><g id="elem_TeamParticipation"><rect codeLine="31" fill="#F1F1F1" height="64.2969" id="TeamParticipation" rx="2.5" ry="2.5" style="stroke:#181818;stroke-width:0.5;" width="176" x="959.1282" y="204.5"/><ellipse cx="979.0782" cy="220.5" fill="#ADD1B2" rx="11" ry="11" style="stroke:#181818;stroke-width:1.0;"/><path d="M981.422,216.1719 C980.4845,215.7344 979.8907,215.5938 979.0157,215.5938 C976.3907,215.5938 974.3907,217.6719 974.3907,220.3906 L974.3907,221.5156 C974.3907,224.0938 976.5001,225.9844 979.3907,225.9844 C980.6095,225.9844 981.7657,225.6875 982.5157,225.1406 C983.0938,224.7344 983.422,224.2813 983.422,223.8906 C983.422,223.4375 983.0313,223.0469 982.5626,223.0469 C982.3438,223.0469 982.1407,223.125 981.9532,223.3125 C981.5001,223.7969 981.5001,223.7969 981.3126,223.8906 C980.8907,224.1563 980.2032,224.2813 979.4376,224.2813 C977.3907,224.2813 976.0938,223.1875 976.0938,221.4844 L976.0938,220.3906 C976.0938,218.6094 977.3438,217.2969 979.0782,217.2969 C979.6563,217.2969 980.2657,217.4531 980.7345,217.7031 C981.2188,217.9844 981.3907,218.2031 981.4845,218.6094 C981.547,219.0156 981.5782,219.1406 981.7188,219.2656 C981.8595,219.4063 982.0938,219.5156 982.3126,219.5156 C982.5782,219.5156 982.8438,219.375 983.0157,219.1563 C983.1251,219 983.1563,218.8125 983.1563,218.3906 L983.1563,216.9688 C983.1563,216.5313 983.1407,216.4063 983.047,216.25 C982.8907,215.9844 982.6095,215.8438 982.3126,215.8438 C982.0157,215.8438 981.8126,215.9375 981.5938,216.25 L981.422,216.1719 Z " fill="#000000"/><text fill="#000000" font-family="sans-serif" font-size="14" lengthAdjust="spacing" textLength="133" x="994.1782" y="225.3467">TeamParticipation</text><line style="stroke:#181818;stroke-width:0.5;" x1="960.1282" x2="1134.1282" y1="236.5" y2="236.5"/><ellipse cx="970.1282" cy="250.1484" fill="none" rx="3" ry="3" style="stroke:#038048;stroke-width:1.0;"/><text fill="#000000" font-family="sans-serif" font-size="14" lengthAdjust="spacing" textLength="150" x="979.1282" y="253.4951">studentCommits: Int</text><line style="stroke:#181818;stroke-width:0.5;" x1="960.1282" x2="1134.1282" y1="260.7969" y2="260.7969"/></g><!--class InviteState--><g id="elem_InviteState"><rect codeLine="23" fill="#F1F1F1" height="96.8906" id="InviteState" rx="2.5" ry="2.5" style="stroke:#181818;stroke-width:0.5;" width="113" x="1205.6332" y="188"/><ellipse cx="1220.6332" cy="204" fill="#EB937F" rx="11" ry="11" style="stroke:#181818;stroke-width:1.0;"/><path d="M1219.4301,204.875 L1220.8832,204.875 L1220.8832,204.9844 C1220.8832,205.3906 1220.9145,205.5469 1220.9926,205.7031 C1221.1488,205.9531 1221.4301,206.1094 1221.727,206.1094 C1221.977,206.1094 1222.2426,205.9688 1222.3988,205.75 C1222.5238,205.5938 1222.5551,205.4375 1222.5551,204.9844 L1222.5551,203.0625 C1222.5551,202.9063 1222.5551,202.8594 1222.5395,202.7031 C1222.477,202.2344 1222.1645,201.9219 1221.7113,201.9219 C1221.4613,201.9219 1221.1957,202.0625 1221.0238,202.2813 C1220.9145,202.4531 1220.8832,202.6094 1220.8832,203.0625 L1220.8832,203.1875 L1219.4301,203.1875 L1219.4301,200.7813 L1223.4145,200.7813 L1223.4145,201.6406 C1223.4145,202.0469 1223.4457,202.2188 1223.5238,202.375 C1223.6957,202.625 1223.977,202.7813 1224.2582,202.7813 C1224.5238,202.7813 1224.7895,202.6406 1224.9613,202.4219 C1225.0707,202.25 1225.102,202.1094 1225.102,201.6406 L1225.102,199.0938 L1217.477,199.0938 C1217.0395,199.0938 1216.9145,199.1094 1216.7582,199.2031 C1216.5082,199.3594 1216.352,199.6563 1216.352,199.9375 C1216.352,200.2188 1216.4926,200.4688 1216.7113,200.6406 C1216.8676,200.75 1217.0551,200.7813 1217.477,200.7813 L1217.727,200.7813 L1217.727,207.2969 L1217.477,207.2969 C1217.0707,207.2969 1216.9145,207.3125 1216.7582,207.4219 C1216.5082,207.5938 1216.352,207.8594 1216.352,208.1563 C1216.352,208.4219 1216.4926,208.6719 1216.7113,208.8281 C1216.852,208.9531 1217.0863,209 1217.477,209 L1225.477,209 L1225.477,206.4219 C1225.477,205.9844 1225.4457,205.8438 1225.3676,205.6875 C1225.1957,205.4375 1224.9145,205.2813 1224.6332,205.2813 C1224.3676,205.2813 1224.102,205.3906 1223.9301,205.6406 C1223.8207,205.7969 1223.7895,205.9375 1223.7895,206.4219 L1223.7895,207.2969 L1219.4301,207.2969 L1219.4301,204.875 Z " fill="#000000"/><text fill="#000000" font-family="sans-serif" font-size="14" lengthAdjust="spacing" textLength="81" x="1234.6332" y="208.8467">InviteState</text><line style="stroke:#181818;stroke-width:0.5;" x1="1206.6332" x2="1317.6332" y1="220" y2="220"/><text fill="#000000" font-family="sans-serif" font-size="14" lengthAdjust="spacing" textLength="77" x="1211.6332" y="236.9951">ACCEPTED</text><text fill="#000000" font-family="sans-serif" font-size="14" lengthAdjust="spacing" textLength="71" x="1211.6332" y="253.292">REJECTED</text><text fill="#000000" font-family="sans-serif" font-size="14" lengthAdjust="spacing" textLength="64" x="1211.6332" y="269.5889">PENDING</text><line style="stroke:#181818;stroke-width:0.5;" x1="1206.6332" x2="1317.6332" y1="276.8906" y2="276.8906"/></g><g id="elem_TeamParticipationToTeam"><path d="M961.6282,402 L961.6282,442.2656 L1250.6282,442.2656 L1250.6282,412 L1240.6282,402 L961.6282,402 " fill="#FEFFDD" style="stroke:#181818;stroke-width:0.5;"/><path d="M1240.6282,402 L1240.6282,412 L1250.6282,412 L1240.6282,402 " fill="#FEFFDD" style="stroke:#181818;stroke-width:1.0;"/><text fill="#000000" font-family="sans-serif" font-size="13" lengthAdjust="spacing" textLength="230" x="967.6282" y="419.0669">One student must have sent invites</text><text fill="#000000" font-family="sans-serif" font-size="13" lengthAdjust="spacing" textLength="268" x="967.6282" y="434.1997">and the others must have accepted them</text></g><!--class Team--><g id="elem_Team"><rect codeLine="42" fill="#F1F1F1" height="48" id="Team" rx="2.5" ry="2.5" style="stroke:#181818;stroke-width:0.5;" width="72" x="1093.1332" y="559.5"/><ellipse cx="1108.1332" cy="575.5" fill="#ADD1B2" rx="11" ry="11" style="stroke:#181818;stroke-width:1.0;"/><path d="M1110.477,571.1719 C1109.5395,570.7344 1108.9457,570.5938 1108.0707,570.5938 C1105.4457,570.5938 1103.4457,572.6719 1103.4457,575.3906 L1103.4457,576.5156 C1103.4457,579.0938 1105.5551,580.9844 1108.4457,580.9844 C1109.6645,580.9844 1110.8207,580.6875 1111.5707,580.1406 C1112.1488,579.7344 1112.477,579.2813 1112.477,578.8906 C1112.477,578.4375 1112.0863,578.0469 1111.6176,578.0469 C1111.3988,578.0469 1111.1957,578.125 1111.0082,578.3125 C1110.5551,578.7969 1110.5551,578.7969 1110.3676,578.8906 C1109.9457,579.1563 1109.2582,579.2813 1108.4926,579.2813 C1106.4457,579.2813 1105.1488,578.1875 1105.1488,576.4844 L1105.1488,575.3906 C1105.1488,573.6094 1106.3988,572.2969 1108.1332,572.2969 C1108.7113,572.2969 1109.3207,572.4531 1109.7895,572.7031 C1110.2738,572.9844 1110.4457,573.2031 1110.5395,573.6094 C1110.602,574.0156 1110.6332,574.1406 1110.7738,574.2656 C1110.9145,574.4063 1111.1488,574.5156 1111.3676,574.5156 C1111.6332,574.5156 1111.8988,574.375 1112.0707,574.1563 C1112.1801,574 1112.2113,573.8125 1112.2113,573.3906 L1112.2113,571.9688 C1112.2113,571.5313 1112.1957,571.4063 1112.102,571.25 C1111.9457,570.9844 1111.6645,570.8438 1111.3676,570.8438 C1111.0707,570.8438 1110.8676,570.9375 1110.6488,571.25 L1110.477,571.1719 Z " fill="#000000"/><text fill="#000000" font-family="sans-serif" font-size="14" lengthAdjust="spacing" textLength="40" x="1122.1332" y="580.3467">Team</text><line style="stroke:#181818;stroke-width:0.5;" x1="1094.1332" x2="1164.1332" y1="591.5" y2="591.5"/><line style="stroke:#181818;stroke-width:0.5;" x1="1094.1332" x2="1164.1332" y1="599.5" y2="599.5"/></g><g id="elem_TeamToBattleParticipation"><path d="M927.1282,741 L927.1282,796.3984 L1339.1282,796.3984 L1339.1282,751 L1329.1282,741 L927.1282,741 " fill="#FEFFDD" style="stroke:#181818;stroke-width:0.5;"/><path d="M1329.1282,741 L1329.1282,751 L1339.1282,751 L1329.1282,741 " fill="#FEFFDD" style="stroke:#181818;stroke-width:1.0;"/><text fill="#000000" font-family="sans-serif" font-size="13" lengthAdjust="spacing" textLength="327" x="933.1282" y="758.0669">All students must be subscribed to the tournament</text><text fill="#000000" font-family="sans-serif" font-size="13" lengthAdjust="spacing" textLength="271" x="933.1282" y="773.1997">Must respect min/max students contraints</text><text fill="#000000" font-family="sans-serif" font-size="13" lengthAdjust="spacing" textLength="391" x="933.1282" y="788.3325">A student must only be in one team at a time for each battle</text></g><!--class BattleParticipation--><g id="elem_BattleParticipation"><rect codeLine="53" fill="#F1F1F1" height="80.5938" id="BattleParticipation" rx="2.5" ry="2.5" style="stroke:#181818;stroke-width:0.5;" width="190" x="1038.1282" y="936"/><ellipse cx="1062.1282" cy="952" fill="#ADD1B2" rx="11" ry="11" style="stroke:#181818;stroke-width:1.0;"/><path d="M1064.4719,947.6719 C1063.5344,947.2344 1062.9407,947.0938 1062.0657,947.0938 C1059.4407,947.0938 1057.4407,949.1719 1057.4407,951.8906 L1057.4407,953.0156 C1057.4407,955.5938 1059.5501,957.4844 1062.4407,957.4844 C1063.6594,957.4844 1064.8157,957.1875 1065.5657,956.6406 C1066.1438,956.2344 1066.4719,955.7813 1066.4719,955.3906 C1066.4719,954.9375 1066.0813,954.5469 1065.6126,954.5469 C1065.3938,954.5469 1065.1907,954.625 1065.0032,954.8125 C1064.5501,955.2969 1064.5501,955.2969 1064.3626,955.3906 C1063.9407,955.6563 1063.2532,955.7813 1062.4876,955.7813 C1060.4407,955.7813 1059.1438,954.6875 1059.1438,952.9844 L1059.1438,951.8906 C1059.1438,950.1094 1060.3938,948.7969 1062.1282,948.7969 C1062.7063,948.7969 1063.3157,948.9531 1063.7844,949.2031 C1064.2688,949.4844 1064.4407,949.7031 1064.5344,950.1094 C1064.5969,950.5156 1064.6282,950.6406 1064.7688,950.7656 C1064.9094,950.9063 1065.1438,951.0156 1065.3626,951.0156 C1065.6282,951.0156 1065.8938,950.875 1066.0657,950.6563 C1066.1751,950.5 1066.2063,950.3125 1066.2063,949.8906 L1066.2063,948.4688 C1066.2063,948.0313 1066.1907,947.9063 1066.0969,947.75 C1065.9407,947.4844 1065.6594,947.3438 1065.3626,947.3438 C1065.0657,947.3438 1064.8626,947.4375 1064.6438,947.75 L1064.4719,947.6719 Z " fill="#000000"/><text fill="#000000" font-family="sans-serif" font-size="14" lengthAdjust="spacing" textLength="138" x="1078.1282" y="956.8467">BattleParticipation</text><line style="stroke:#181818;stroke-width:0.5;" x1="1039.1282" x2="1227.1282" y1="968" y2="968"/><ellipse cx="1049.1282" cy="981.6484" fill="none" rx="3" ry="3" style="stroke:#038048;stroke-width:1.0;"/><text fill="#000000" font-family="sans-serif" font-size="14" lengthAdjust="spacing" textLength="164" x="1058.1282" y="984.9951">registrationDate: Date</text><ellipse cx="1049.1282" cy="997.9453" fill="none" rx="3" ry="3" style="stroke:#038048;stroke-width:1.0;"/><text fill="#000000" font-family="sans-serif" font-size="14" lengthAdjust="spacing" textLength="68" x="1058.1282" y="1001.292">score: int</text><line style="stroke:#181818;stroke-width:0.5;" x1="1039.1282" x2="1227.1282" y1="1008.5938" y2="1008.5938"/></g><!--class TournamentSubscription--><g id="elem_TournamentSubscription"><rect codeLine="60" fill="#F1F1F1" height="80.5938" id="TournamentSubscription" rx="2.5" ry="2.5" style="stroke:#181818;stroke-width:0.5;" width="211" x="715.6282" y="543"/><ellipse cx="730.6282" cy="559" fill="#ADD1B2" rx="11" ry="11" style="stroke:#181818;stroke-width:1.0;"/><path d="M732.972,554.6719 C732.0345,554.2344 731.4407,554.0938 730.5657,554.0938 C727.9407,554.0938 725.9407,556.1719 725.9407,558.8906 L725.9407,560.0156 C725.9407,562.5938 728.0501,564.4844 730.9407,564.4844 C732.1595,564.4844 733.3157,564.1875 734.0657,563.6406 C734.6438,563.2344 734.972,562.7813 734.972,562.3906 C734.972,561.9375 734.5813,561.5469 734.1126,561.5469 C733.8938,561.5469 733.6907,561.625 733.5032,561.8125 C733.0501,562.2969 733.0501,562.2969 732.8626,562.3906 C732.4407,562.6563 731.7532,562.7813 730.9876,562.7813 C728.9407,562.7813 727.6438,561.6875 727.6438,559.9844 L727.6438,558.8906 C727.6438,557.1094 728.8938,555.7969 730.6282,555.7969 C731.2063,555.7969 731.8157,555.9531 732.2845,556.2031 C732.7688,556.4844 732.9407,556.7031 733.0345,557.1094 C733.097,557.5156 733.1282,557.6406 733.2688,557.7656 C733.4095,557.9063 733.6438,558.0156 733.8626,558.0156 C734.1282,558.0156 734.3938,557.875 734.5657,557.6563 C734.6751,557.5 734.7063,557.3125 734.7063,556.8906 L734.7063,555.4688 C734.7063,555.0313 734.6907,554.9063 734.597,554.75 C734.4407,554.4844 734.1595,554.3438 733.8626,554.3438 C733.5657,554.3438 733.3626,554.4375 733.1438,554.75 L732.972,554.6719 Z " fill="#000000"/><text fill="#000000" font-family="sans-serif" font-size="14" lengthAdjust="spacing" textLength="179" x="744.6282" y="563.8467">TournamentSubscription</text><line style="stroke:#181818;stroke-width:0.5;" x1="716.6282" x2="925.6282" y1="575" y2="575"/><ellipse cx="726.6282" cy="588.6484" fill="none" rx="3" ry="3" style="stroke:#038048;stroke-width:1.0;"/><text fill="#000000" font-family="sans-serif" font-size="14" lengthAdjust="spacing" textLength="68" x="735.6282" y="591.9951">score: Int</text><ellipse cx="726.6282" cy="604.9453" fill="none" rx="3" ry="3" style="stroke:#038048;stroke-width:1.0;"/><text fill="#000000" font-family="sans-serif" font-size="14" lengthAdjust="spacing" textLength="168" x="735.6282" y="608.292">subscriptionDate: Date</text><line style="stroke:#181818;stroke-width:0.5;" x1="716.6282" x2="925.6282" y1="615.5938" y2="615.5938"/></g><g id="elem_TournamentSubscriptionToTournament"><path d="M658.1282,846 L658.1282,886.2656 L948.1282,886.2656 L948.1282,856 L938.1282,846 L658.1282,846 " fill="#FEFFDD" style="stroke:#181818;stroke-width:0.5;"/><path d="M938.1282,846 L938.1282,856 L948.1282,856 L938.1282,846 " fill="#FEFFDD" style="stroke:#181818;stroke-width:1.0;"/><text fill="#000000" font-family="sans-serif" font-size="13" lengthAdjust="spacing" textLength="66" x="664.1282" y="863.0669">Must have</text><text fill="#000000" font-family="sans-serif" font-size="13" lengthAdjust="spacing" textLength="269" x="664.1282" y="878.1997">subscriptionDate &lt;= subscriptionDeadline</text></g><!--class Tournament--><g id="elem_Tournament"><rect codeLine="72" fill="#F1F1F1" height="80.5938" id="Tournament" rx="2.5" ry="2.5" style="stroke:#181818;stroke-width:0.5;" width="222" x="259.1282" y="1192"/><ellipse cx="321.8782" cy="1208" fill="#ADD1B2" rx="11" ry="11" style="stroke:#181818;stroke-width:1.0;"/><path d="M324.222,1203.6719 C323.2845,1203.2344 322.6907,1203.0938 321.8157,1203.0938 C319.1907,1203.0938 317.1907,1205.1719 317.1907,1207.8906 L317.1907,1209.0156 C317.1907,1211.5938 319.3001,1213.4844 322.1907,1213.4844 C323.4095,1213.4844 324.5657,1213.1875 325.3157,1212.6406 C325.8938,1212.2344 326.222,1211.7813 326.222,1211.3906 C326.222,1210.9375 325.8313,1210.5469 325.3626,1210.5469 C325.1438,1210.5469 324.9407,1210.625 324.7532,1210.8125 C324.3001,1211.2969 324.3001,1211.2969 324.1126,1211.3906 C323.6907,1211.6563 323.0032,1211.7813 322.2376,1211.7813 C320.1907,1211.7813 318.8938,1210.6875 318.8938,1208.9844 L318.8938,1207.8906 C318.8938,1206.1094 320.1438,1204.7969 321.8782,1204.7969 C322.4563,1204.7969 323.0657,1204.9531 323.5345,1205.2031 C324.0188,1205.4844 324.1907,1205.7031 324.2845,1206.1094 C324.347,1206.5156 324.3782,1206.6406 324.5188,1206.7656 C324.6595,1206.9063 324.8938,1207.0156 325.1126,1207.0156 C325.3782,1207.0156 325.6438,1206.875 325.8157,1206.6563 C325.9251,1206.5 325.9563,1206.3125 325.9563,1205.8906 L325.9563,1204.4688 C325.9563,1204.0313 325.9407,1203.9063 325.847,1203.75 C325.6907,1203.4844 325.4095,1203.3438 325.1126,1203.3438 C324.8157,1203.3438 324.6126,1203.4375 324.3938,1203.75 L324.222,1203.6719 Z " fill="#000000"/><text fill="#000000" font-family="sans-serif" font-size="14" lengthAdjust="spacing" textLength="88" x="342.3782" y="1212.8467">Tournament</text><line style="stroke:#181818;stroke-width:0.5;" x1="260.1282" x2="480.1282" y1="1224" y2="1224"/><ellipse cx="270.1282" cy="1237.6484" fill="none" rx="3" ry="3" style="stroke:#038048;stroke-width:1.0;"/><text fill="#000000" font-family="sans-serif" font-size="14" lengthAdjust="spacing" textLength="175" x="279.1282" y="1240.9951">state: TournamentState</text><ellipse cx="270.1282" cy="1253.9453" fill="none" rx="3" ry="3" style="stroke:#038048;stroke-width:1.0;"/><text fill="#000000" font-family="sans-serif" font-size="14" lengthAdjust="spacing" textLength="196" x="279.1282" y="1257.292">subscriptionDeadline: Date</text><line style="stroke:#181818;stroke-width:0.5;" x1="260.1282" x2="480.1282" y1="1264.5938" y2="1264.5938"/></g><!--class TournamentState--><g id="elem_TournamentState"><rect codeLine="77" fill="#F1F1F1" height="96.8906" id="TournamentState" rx="2.5" ry="2.5" style="stroke:#181818;stroke-width:0.5;" width="160" x="551.1282" y="1184"/><ellipse cx="566.1282" cy="1200" fill="#EB937F" rx="11" ry="11" style="stroke:#181818;stroke-width:1.0;"/><path d="M564.9251,1200.875 L566.3782,1200.875 L566.3782,1200.9844 C566.3782,1201.3906 566.4095,1201.5469 566.4876,1201.7031 C566.6438,1201.9531 566.9251,1202.1094 567.222,1202.1094 C567.472,1202.1094 567.7376,1201.9688 567.8938,1201.75 C568.0188,1201.5938 568.0501,1201.4375 568.0501,1200.9844 L568.0501,1199.0625 C568.0501,1198.9063 568.0501,1198.8594 568.0345,1198.7031 C567.972,1198.2344 567.6595,1197.9219 567.2063,1197.9219 C566.9563,1197.9219 566.6907,1198.0625 566.5188,1198.2813 C566.4095,1198.4531 566.3782,1198.6094 566.3782,1199.0625 L566.3782,1199.1875 L564.9251,1199.1875 L564.9251,1196.7813 L568.9095,1196.7813 L568.9095,1197.6406 C568.9095,1198.0469 568.9407,1198.2188 569.0188,1198.375 C569.1907,1198.625 569.472,1198.7813 569.7532,1198.7813 C570.0188,1198.7813 570.2845,1198.6406 570.4563,1198.4219 C570.5657,1198.25 570.597,1198.1094 570.597,1197.6406 L570.597,1195.0938 L562.972,1195.0938 C562.5345,1195.0938 562.4095,1195.1094 562.2532,1195.2031 C562.0032,1195.3594 561.847,1195.6563 561.847,1195.9375 C561.847,1196.2188 561.9876,1196.4688 562.2063,1196.6406 C562.3626,1196.75 562.5501,1196.7813 562.972,1196.7813 L563.222,1196.7813 L563.222,1203.2969 L562.972,1203.2969 C562.5657,1203.2969 562.4095,1203.3125 562.2532,1203.4219 C562.0032,1203.5938 561.847,1203.8594 561.847,1204.1563 C561.847,1204.4219 561.9876,1204.6719 562.2063,1204.8281 C562.347,1204.9531 562.5813,1205 562.972,1205 L570.972,1205 L570.972,1202.4219 C570.972,1201.9844 570.9407,1201.8438 570.8626,1201.6875 C570.6907,1201.4375 570.4095,1201.2813 570.1282,1201.2813 C569.8626,1201.2813 569.597,1201.3906 569.4251,1201.6406 C569.3157,1201.7969 569.2845,1201.9375 569.2845,1202.4219 L569.2845,1203.2969 L564.9251,1203.2969 L564.9251,1200.875 Z " fill="#000000"/><text fill="#000000" font-family="sans-serif" font-size="14" lengthAdjust="spacing" textLength="128" x="580.1282" y="1204.8467">TournamentState</text><line style="stroke:#181818;stroke-width:0.5;" x1="552.1282" x2="710.1282" y1="1216" y2="1216"/><text fill="#000000" font-family="sans-serif" font-size="14" lengthAdjust="spacing" textLength="96" x="557.1282" y="1232.9951">SUBSCRIBING</text><text fill="#000000" font-family="sans-serif" font-size="14" lengthAdjust="spacing" textLength="99" x="557.1282" y="1249.292">IN_PROGRESS</text><text fill="#000000" font-family="sans-serif" font-size="14" lengthAdjust="spacing" textLength="41" x="557.1282" y="1265.5889">DONE</text><line style="stroke:#181818;stroke-width:0.5;" x1="552.1282" x2="710.1282" y1="1272.8906" y2="1272.8906"/></g><g id="elem_BattleParticipationToBattle"><path d="M781.1282,1212.5 L781.1282,1252.7656 L1063.1282,1252.7656 L1063.1282,1222.5 L1053.1282,1212.5 L781.1282,1212.5 " fill="#FEFFDD" style="stroke:#181818;stroke-width:0.5;"/><path d="M1053.1282,1212.5 L1053.1282,1222.5 L1063.1282,1222.5 L1053.1282,1212.5 " fill="#FEFFDD" style="stroke:#181818;stroke-width:1.0;"/><text fill="#000000" font-family="sans-serif" font-size="13" lengthAdjust="spacing" textLength="66" x="787.1282" y="1229.5669">Must have</text><text fill="#000000" font-family="sans-serif" font-size="13" lengthAdjust="spacing" textLength="261" x="787.1282" y="1244.6997">registrationDate &lt;= registrationDeadline</text></g><!--class Battle--><g id="elem_Battle"><rect codeLine="90" fill="#F1F1F1" height="178.375" id="Battle" rx="2.5" ry="2.5" style="stroke:#181818;stroke-width:0.5;" width="248" x="264.1282" y="1416"/><ellipse cx="361.3782" cy="1432" fill="#ADD1B2" rx="11" ry="11" style="stroke:#181818;stroke-width:1.0;"/><path d="M363.722,1427.6719 C362.7845,1427.2344 362.1907,1427.0938 361.3157,1427.0938 C358.6907,1427.0938 356.6907,1429.1719 356.6907,1431.8906 L356.6907,1433.0156 C356.6907,1435.5938 358.8001,1437.4844 361.6907,1437.4844 C362.9095,1437.4844 364.0657,1437.1875 364.8157,1436.6406 C365.3938,1436.2344 365.722,1435.7813 365.722,1435.3906 C365.722,1434.9375 365.3313,1434.5469 364.8626,1434.5469 C364.6438,1434.5469 364.4407,1434.625 364.2532,1434.8125 C363.8001,1435.2969 363.8001,1435.2969 363.6126,1435.3906 C363.1907,1435.6563 362.5032,1435.7813 361.7376,1435.7813 C359.6907,1435.7813 358.3938,1434.6875 358.3938,1432.9844 L358.3938,1431.8906 C358.3938,1430.1094 359.6438,1428.7969 361.3782,1428.7969 C361.9563,1428.7969 362.5657,1428.9531 363.0345,1429.2031 C363.5188,1429.4844 363.6907,1429.7031 363.7845,1430.1094 C363.847,1430.5156 363.8782,1430.6406 364.0188,1430.7656 C364.1595,1430.9063 364.3938,1431.0156 364.6126,1431.0156 C364.8782,1431.0156 365.1438,1430.875 365.3157,1430.6563 C365.4251,1430.5 365.4563,1430.3125 365.4563,1429.8906 L365.4563,1428.4688 C365.4563,1428.0313 365.4407,1427.9063 365.347,1427.75 C365.1907,1427.4844 364.9095,1427.3438 364.6126,1427.3438 C364.3157,1427.3438 364.1126,1427.4375 363.8938,1427.75 L363.722,1427.6719 Z " fill="#000000"/><text fill="#000000" font-family="sans-serif" font-size="14" lengthAdjust="spacing" textLength="45" x="381.8782" y="1436.8467">Battle</text><line style="stroke:#181818;stroke-width:0.5;" x1="265.1282" x2="511.1282" y1="1448" y2="1448"/><ellipse cx="275.1282" cy="1461.6484" fill="none" rx="3" ry="3" style="stroke:#038048;stroke-width:1.0;"/><text fill="#000000" font-family="sans-serif" font-size="14" lengthAdjust="spacing" textLength="132" x="284.1282" y="1464.9951">state: BattleState</text><ellipse cx="275.1282" cy="1477.9453" fill="none" rx="3" ry="3" style="stroke:#038048;stroke-width:1.0;"/><text fill="#000000" font-family="sans-serif" font-size="14" lengthAdjust="spacing" textLength="135" x="284.1282" y="1481.292">description: String</text><ellipse cx="275.1282" cy="1494.2422" fill="none" rx="3" ry="3" style="stroke:#038048;stroke-width:1.0;"/><text fill="#000000" font-family="sans-serif" font-size="14" lengthAdjust="spacing" textLength="169" x="284.1282" y="1497.5889">softwareProject: Folder</text><ellipse cx="275.1282" cy="1510.5391" fill="none" rx="3" ry="3" style="stroke:#038048;stroke-width:1.0;"/><text fill="#000000" font-family="sans-serif" font-size="14" lengthAdjust="spacing" textLength="121" x="284.1282" y="1513.8857">minStudents: Int</text><ellipse cx="275.1282" cy="1526.8359" fill="none" rx="3" ry="3" style="stroke:#038048;stroke-width:1.0;"/><text fill="#000000" font-family="sans-serif" font-size="14" lengthAdjust="spacing" textLength="124" x="284.1282" y="1530.1826">maxStudents: Int</text><ellipse cx="275.1282" cy="1543.1328" fill="none" rx="3" ry="3" style="stroke:#038048;stroke-width:1.0;"/><text fill="#000000" font-family="sans-serif" font-size="14" lengthAdjust="spacing" textLength="192" x="284.1282" y="1546.4795">registrationDeadline: Date</text><ellipse cx="275.1282" cy="1559.4297" fill="none" rx="3" ry="3" style="stroke:#038048;stroke-width:1.0;"/><text fill="#000000" font-family="sans-serif" font-size="14" lengthAdjust="spacing" textLength="186" x="284.1282" y="1562.7764">submissionDeadline: Date</text><line style="stroke:#181818;stroke-width:1.0;" x1="265.1282" x2="511.1282" y1="1570.0781" y2="1570.0781"/><ellipse cx="275.1282" cy="1583.7266" fill="none" rx="3" ry="3" style="stroke:#038048;stroke-width:1.0;"/><text fill="#000000" font-family="sans-serif" font-size="14" lengthAdjust="spacing" textLength="222" x="284.1282" y="1587.0732">requiresManualEvaluation: Bool</text></g><!--class BattleState--><g id="elem_BattleState"><rect codeLine="102" fill="#F1F1F1" height="113.1875" id="BattleState" rx="2.5" ry="2.5" style="stroke:#181818;stroke-width:0.5;" width="130" x="582.1282" y="1448.5"/><ellipse cx="602.9782" cy="1464.5" fill="#EB937F" rx="11" ry="11" style="stroke:#181818;stroke-width:1.0;"/><path d="M601.7751,1465.375 L603.2282,1465.375 L603.2282,1465.4844 C603.2282,1465.8906 603.2595,1466.0469 603.3376,1466.2031 C603.4938,1466.4531 603.7751,1466.6094 604.072,1466.6094 C604.322,1466.6094 604.5876,1466.4688 604.7438,1466.25 C604.8688,1466.0938 604.9001,1465.9375 604.9001,1465.4844 L604.9001,1463.5625 C604.9001,1463.4063 604.9001,1463.3594 604.8845,1463.2031 C604.822,1462.7344 604.5095,1462.4219 604.0563,1462.4219 C603.8063,1462.4219 603.5407,1462.5625 603.3688,1462.7813 C603.2595,1462.9531 603.2282,1463.1094 603.2282,1463.5625 L603.2282,1463.6875 L601.7751,1463.6875 L601.7751,1461.2813 L605.7595,1461.2813 L605.7595,1462.1406 C605.7595,1462.5469 605.7907,1462.7188 605.8688,1462.875 C606.0407,1463.125 606.322,1463.2813 606.6032,1463.2813 C606.8688,1463.2813 607.1345,1463.1406 607.3063,1462.9219 C607.4157,1462.75 607.447,1462.6094 607.447,1462.1406 L607.447,1459.5938 L599.822,1459.5938 C599.3845,1459.5938 599.2595,1459.6094 599.1032,1459.7031 C598.8532,1459.8594 598.697,1460.1563 598.697,1460.4375 C598.697,1460.7188 598.8376,1460.9688 599.0563,1461.1406 C599.2126,1461.25 599.4001,1461.2813 599.822,1461.2813 L600.072,1461.2813 L600.072,1467.7969 L599.822,1467.7969 C599.4157,1467.7969 599.2595,1467.8125 599.1032,1467.9219 C598.8532,1468.0938 598.697,1468.3594 598.697,1468.6563 C598.697,1468.9219 598.8376,1469.1719 599.0563,1469.3281 C599.197,1469.4531 599.4313,1469.5 599.822,1469.5 L607.822,1469.5 L607.822,1466.9219 C607.822,1466.4844 607.7907,1466.3438 607.7126,1466.1875 C607.5407,1465.9375 607.2595,1465.7813 606.9782,1465.7813 C606.7126,1465.7813 606.447,1465.8906 606.2751,1466.1406 C606.1657,1466.2969 606.1345,1466.4375 606.1345,1466.9219 L606.1345,1467.7969 L601.7751,1467.7969 L601.7751,1465.375 Z " fill="#000000"/><text fill="#000000" font-family="sans-serif" font-size="14" lengthAdjust="spacing" textLength="85" x="618.2782" y="1469.3467">BattleState</text><line style="stroke:#181818;stroke-width:0.5;" x1="583.1282" x2="711.1282" y1="1480.5" y2="1480.5"/><text fill="#000000" font-family="sans-serif" font-size="14" lengthAdjust="spacing" textLength="106" x="588.1282" y="1497.4951">REGISTRATION</text><text fill="#000000" font-family="sans-serif" font-size="14" lengthAdjust="spacing" textLength="87" x="588.1282" y="1513.792">SUBMISSION</text><text fill="#000000" font-family="sans-serif" font-size="14" lengthAdjust="spacing" textLength="118" x="588.1282" y="1530.0889">CONSOLIDATION</text><text fill="#000000" font-family="sans-serif" font-size="14" lengthAdjust="spacing" textLength="41" x="588.1282" y="1546.3857">DONE</text><line style="stroke:#181818;stroke-width:0.5;" x1="583.1282" x2="711.1282" y1="1553.6875" y2="1553.6875"/></g><!--class Repository--><g id="elem_Repository"><rect codeLine="109" fill="#F1F1F1" height="48" id="Repository" rx="2.5" ry="2.5" style="stroke:#181818;stroke-width:0.5;" width="111" x="970.6282" y="1481"/><ellipse cx="985.6282" cy="1497" fill="#ADD1B2" rx="11" ry="11" style="stroke:#181818;stroke-width:1.0;"/><path d="M987.972,1492.6719 C987.0345,1492.2344 986.4407,1492.0938 985.5657,1492.0938 C982.9407,1492.0938 980.9407,1494.1719 980.9407,1496.8906 L980.9407,1498.0156 C980.9407,1500.5938 983.0501,1502.4844 985.9407,1502.4844 C987.1595,1502.4844 988.3157,1502.1875 989.0657,1501.6406 C989.6438,1501.2344 989.972,1500.7813 989.972,1500.3906 C989.972,1499.9375 989.5813,1499.5469 989.1126,1499.5469 C988.8938,1499.5469 988.6907,1499.625 988.5032,1499.8125 C988.0501,1500.2969 988.0501,1500.2969 987.8626,1500.3906 C987.4407,1500.6563 986.7532,1500.7813 985.9876,1500.7813 C983.9407,1500.7813 982.6438,1499.6875 982.6438,1497.9844 L982.6438,1496.8906 C982.6438,1495.1094 983.8938,1493.7969 985.6282,1493.7969 C986.2063,1493.7969 986.8157,1493.9531 987.2845,1494.2031 C987.7688,1494.4844 987.9407,1494.7031 988.0345,1495.1094 C988.097,1495.5156 988.1282,1495.6406 988.2688,1495.7656 C988.4095,1495.9063 988.6438,1496.0156 988.8626,1496.0156 C989.1282,1496.0156 989.3938,1495.875 989.5657,1495.6563 C989.6751,1495.5 989.7063,1495.3125 989.7063,1494.8906 L989.7063,1493.4688 C989.7063,1493.0313 989.6907,1492.9063 989.597,1492.75 C989.4407,1492.4844 989.1595,1492.3438 988.8626,1492.3438 C988.5657,1492.3438 988.3626,1492.4375 988.1438,1492.75 L987.972,1492.6719 Z " fill="#000000"/><text fill="#000000" font-family="sans-serif" font-size="14" lengthAdjust="spacing" textLength="79" x="999.6282" y="1501.8467">Repository</text><line style="stroke:#181818;stroke-width:0.5;" x1="971.6282" x2="1080.6282" y1="1513" y2="1513"/><line style="stroke:#181818;stroke-width:0.5;" x1="971.6282" x2="1080.6282" y1="1521" y2="1521"/></g><g id="elem_GMN35"><path d="M866.6282,1695 L866.6282,1720.1328 A0,0 0 0 0 866.6282,1720.1328 L1185.6282,1720.1328 A0,0 0 0 0 1185.6282,1720.1328 L1185.6282,1705 L1175.6282,1695 L1030.1282,1695 L1026.1282,1529.392 L1022.1282,1695 L866.6282,1695 A0,0 0 0 0 866.6282,1695 " fill="#FEFFDD" style="stroke:#181818;stroke-width:0.5;"/><path d="M1175.6282,1695 L1175.6282,1705 L1185.6282,1705 L1175.6282,1695 " fill="#FEFFDD" style="stroke:#181818;stroke-width:0.5;"/><text fill="#000000" font-family="sans-serif" font-size="13" lengthAdjust="spacing" textLength="298" x="872.6282" y="1712.0669">Either refers to a Battle or a BattleParticipation</text></g><!--class Github--><g id="elem_Github"><rect codeLine="113" fill="#F1F1F1" height="48" id="Github" rx="2.5" ry="2.5" style="stroke:#181818;stroke-width:0.5;" width="81" x="782.6282" y="1481"/><ellipse cx="797.6282" cy="1497" fill="#ADD1B2" rx="11" ry="11" style="stroke:#181818;stroke-width:1.0;"/><path d="M799.972,1492.6719 C799.0345,1492.2344 798.4407,1492.0938 797.5657,1492.0938 C794.9407,1492.0938 792.9407,1494.1719 792.9407,1496.8906 L792.9407,1498.0156 C792.9407,1500.5938 795.0501,1502.4844 797.9407,1502.4844 C799.1595,1502.4844 800.3157,1502.1875 801.0657,1501.6406 C801.6438,1501.2344 801.972,1500.7813 801.972,1500.3906 C801.972,1499.9375 801.5813,1499.5469 801.1126,1499.5469 C800.8938,1499.5469 800.6907,1499.625 800.5032,1499.8125 C800.0501,1500.2969 800.0501,1500.2969 799.8626,1500.3906 C799.4407,1500.6563 798.7532,1500.7813 797.9876,1500.7813 C795.9407,1500.7813 794.6438,1499.6875 794.6438,1497.9844 L794.6438,1496.8906 C794.6438,1495.1094 795.8938,1493.7969 797.6282,1493.7969 C798.2063,1493.7969 798.8157,1493.9531 799.2845,1494.2031 C799.7688,1494.4844 799.9407,1494.7031 800.0345,1495.1094 C800.097,1495.5156 800.1282,1495.6406 800.2688,1495.7656 C800.4095,1495.9063 800.6438,1496.0156 800.8626,1496.0156 C801.1282,1496.0156 801.3938,1495.875 801.5657,1495.6563 C801.6751,1495.5 801.7063,1495.3125 801.7063,1494.8906 L801.7063,1493.4688 C801.7063,1493.0313 801.6907,1492.9063 801.597,1492.75 C801.4407,1492.4844 801.1595,1492.3438 800.8626,1492.3438 C800.5657,1492.3438 800.3626,1492.4375 800.1438,1492.75 L799.972,1492.6719 Z " fill="#000000"/><text fill="#000000" font-family="sans-serif" font-size="14" lengthAdjust="spacing" textLength="49" x="811.6282" y="1501.8467">Github</text><line style="stroke:#181818;stroke-width:0.5;" x1="783.6282" x2="862.6282" y1="1513" y2="1513"/><line style="stroke:#181818;stroke-width:0.5;" x1="783.6282" x2="862.6282" y1="1521" y2="1521"/></g><!--class Badge--><g id="elem_Badge"><rect codeLine="116" fill="#F1F1F1" height="80.5938" id="Badge" rx="2.5" ry="2.5" style="stroke:#181818;stroke-width:0.5;" width="147" x="518.6282" y="936"/><ellipse cx="565.3782" cy="952" fill="#ADD1B2" rx="11" ry="11" style="stroke:#181818;stroke-width:1.0;"/><path d="M567.722,947.6719 C566.7845,947.2344 566.1907,947.0938 565.3157,947.0938 C562.6907,947.0938 560.6907,949.1719 560.6907,951.8906 L560.6907,953.0156 C560.6907,955.5938 562.8001,957.4844 565.6907,957.4844 C566.9095,957.4844 568.0657,957.1875 568.8157,956.6406 C569.3938,956.2344 569.722,955.7813 569.722,955.3906 C569.722,954.9375 569.3313,954.5469 568.8626,954.5469 C568.6438,954.5469 568.4407,954.625 568.2532,954.8125 C567.8001,955.2969 567.8001,955.2969 567.6126,955.3906 C567.1907,955.6563 566.5032,955.7813 565.7376,955.7813 C563.6907,955.7813 562.3938,954.6875 562.3938,952.9844 L562.3938,951.8906 C562.3938,950.1094 563.6438,948.7969 565.3782,948.7969 C565.9563,948.7969 566.5657,948.9531 567.0345,949.2031 C567.5188,949.4844 567.6907,949.7031 567.7845,950.1094 C567.847,950.5156 567.8782,950.6406 568.0188,950.7656 C568.1595,950.9063 568.3938,951.0156 568.6126,951.0156 C568.8782,951.0156 569.1438,950.875 569.3157,950.6563 C569.4251,950.5 569.4563,950.3125 569.4563,949.8906 L569.4563,948.4688 C569.4563,948.0313 569.4407,947.9063 569.347,947.75 C569.1907,947.4844 568.9095,947.3438 568.6126,947.3438 C568.3157,947.3438 568.1126,947.4375 567.8938,947.75 L567.722,947.6719 Z " fill="#000000"/><text fill="#000000" font-family="sans-serif" font-size="14" lengthAdjust="spacing" textLength="45" x="585.8782" y="956.8467">Badge</text><line style="stroke:#181818;stroke-width:0.5;" x1="519.6282" x2="664.6282" y1="968" y2="968"/><ellipse cx="529.6282" cy="981.6484" fill="none" rx="3" ry="3" style="stroke:#038048;stroke-width:1.0;"/><text fill="#000000" font-family="sans-serif" font-size="14" lengthAdjust="spacing" textLength="84" x="538.6282" y="984.9951">title: String</text><ellipse cx="529.6282" cy="997.9453" fill="none" rx="3" ry="3" style="stroke:#038048;stroke-width:1.0;"/><text fill="#000000" font-family="sans-serif" font-size="14" lengthAdjust="spacing" textLength="121" x="538.6282" y="1001.292">condition: String</text><line style="stroke:#181818;stroke-width:0.5;" x1="519.6282" x2="664.6282" y1="1008.5938" y2="1008.5938"/></g><g id="elem_BattleParticipationToRepository"><path d="M1035.6282,1073 L1035.6282,1128.3984 L1264.6282,1128.3984 L1264.6282,1083 L1254.6282,1073 L1035.6282,1073 " fill="#FEFFDD" style="stroke:#181818;stroke-width:0.5;"/><path d="M1254.6282,1073 L1254.6282,1083 L1264.6282,1083 L1254.6282,1073 " fill="#FEFFDD" style="stroke:#181818;stroke-width:1.0;"/><text fill="#000000" font-family="sans-serif" font-size="13" lengthAdjust="spacing" textLength="167" x="1041.6282" y="1090.0669">Exists only past the battle</text><text fill="#000000" font-family="sans-serif" font-size="13" lengthAdjust="spacing" textLength="171" x="1041.6282" y="1105.1997">REGISTRATION state and if</text><text fill="#000000" font-family="sans-serif" font-size="13" lengthAdjust="spacing" textLength="208" x="1041.6282" y="1120.3325">the team created it on their own</text></g><g id="elem_TournamentSubscriptionToBadge"><path d="M415.1282,748.5 L415.1282,788.7656 L715.1282,788.7656 L715.1282,758.5 L705.1282,748.5 L415.1282,748.5 " fill="#FEFFDD" style="stroke:#181818;stroke-width:0.5;"/><path d="M705.1282,748.5 L705.1282,758.5 L715.1282,758.5 L705.1282,748.5 " fill="#FEFFDD" style="stroke:#181818;stroke-width:1.0;"/><text fill="#000000" font-family="sans-serif" font-size="13" lengthAdjust="spacing" textLength="278" x="421.1282" y="765.5669">Badge must be defined for this tournament</text><text fill="#000000" font-family="sans-serif" font-size="13" lengthAdjust="spacing" textLength="279" x="421.1282" y="780.6997">Student must have fulfilled badge condition</text></g><!--link Student to inviteDiamond--><g id="link_Student_inviteDiamond"><path codeLine="12" d="M907.2732,39 C930.5082,39 953.7432,39 976.9782,39 " fill="none" id="Student-inviteDiamond" style="stroke:#181818;stroke-width:1.0;"/><text fill="#000000" font-family="sans-serif" font-size="13" lengthAdjust="spacing" textLength="8" x="915.1057" y="34.8822">1</text></g><!--link inviteDiamond to Invite--><g id="link_inviteDiamond_Invite"><path codeLine="13" d="M997.6952,42.9 C1008.9762,47.8 1029.5602,55.94 1048.1332,59 C1080.6232,64.36 1116.7132,61.8 1147.7832,56.98 " fill="none" id="inviteDiamond-Invite" style="stroke:#181818;stroke-width:1.0;"/><polygon fill="#000000" points="1058.1113,51.0334,1049.3803,47.2625,1048.8313,53.1147,1058.1113,51.0334" style="stroke:#000000;stroke-width:1.0;"/><text fill="#000000" font-family="sans-serif" font-size="13" lengthAdjust="spacing" textLength="38" x="1062.1332" y="55.0669">sends</text><text fill="#000000" font-family="sans-serif" font-size="13" lengthAdjust="spacing" textLength="28" x="1112.2183" y="54.908">0...n</text></g><!--link inviteDiamond to Invite--><g id="link_inviteDiamond_Invite"><path codeLine="14" d="M1001.1562,39 C1027.9262,39 1094.2932,39 1147.8732,39 " fill="none" id="inviteDiamond-Invite-1" style="stroke:#181818;stroke-width:1.0;"/><polygon fill="#000000" points="1046.1282,27.5664,1037.0831,24.6275,1037.0831,30.5053,1046.1282,27.5664" style="stroke:#000000;stroke-width:1.0;"/><text fill="#000000" font-family="sans-serif" font-size="13" lengthAdjust="spacing" textLength="62" x="1050.1282" y="32.0669">receives&#160;&#160;</text><text fill="#000000" font-family="sans-serif" font-size="13" lengthAdjust="spacing" textLength="28" x="1112.0305" y="35.4153">0...n</text></g><!--link Invite to TeamParticipation--><g id="link_Invite_TeamParticipation"><path codeLine="15" d="M1196.5332,71.41 C1163.2132,108 1116.6021,159.1969 1083.4421,195.6169 " fill="none" id="Invite-to-TeamParticipation" style="stroke:#181818;stroke-width:1.0;"/><polygon fill="none" points="1075.3632,204.49,1082.3603,202.7464,1083.4421,195.6169,1076.4449,197.3605,1075.3632,204.49" style="stroke:#181818;stroke-width:1.0;"/><polygon fill="#000000" points="1148.767,133.2635,1157.0296,128.554,1152.6834,124.5968,1148.767,133.2635" style="stroke:#000000;stroke-width:1.0;"/><text fill="#000000" font-family="sans-serif" font-size="13" lengthAdjust="spacing" textLength="39" x="1161.1332" y="134.0669">to join</text><text fill="#000000" font-family="sans-serif" font-size="13" lengthAdjust="spacing" textLength="28" x="1160.1463" y="91.318">0...1</text><text fill="#000000" font-family="sans-serif" font-size="13" lengthAdjust="spacing" textLength="8" x="1072.3617" y="193.391">1</text></g><!--link Invite to InviteState--><g id="link_Invite_InviteState"><path codeLine="17" d="M1231.0732,71.41 C1237.0132,102.82 1246.2332,151.53 1253.0832,187.73 " fill="none" id="Invite-InviteState" style="stroke:#181818;stroke-width:1.0;"/></g><!--link Student to TeamParticipation--><g id="link_Student_TeamParticipation"><path codeLine="29" d="M884.0772,63.19 C917.2892,98.29 972.1276,156.2444 1009.3406,195.5644 " fill="none" id="Student-to-TeamParticipation" style="stroke:#181818;stroke-width:1.0;"/><polygon fill="none" points="1017.5892,204.28,1016.3701,197.1727,1009.3406,195.5644,1010.5597,202.6717,1017.5892,204.28" style="stroke:#181818;stroke-width:1.0;"/><polygon fill="#000000" points="963.5648,133.1981,959.4826,124.6083,955.2132,128.6483,963.5648,133.1981" style="stroke:#000000;stroke-width:1.0;"/><text fill="#000000" font-family="sans-serif" font-size="13" lengthAdjust="spacing" textLength="65" x="969.1282" y="134.0669">takes part</text><text fill="#000000" font-family="sans-serif" font-size="13" lengthAdjust="spacing" textLength="8" x="880.4523" y="82.9975">1</text><text fill="#000000" font-family="sans-serif" font-size="13" lengthAdjust="spacing" textLength="28" x="981.0175" y="193.5109">0...n</text></g><!--link TeamParticipation to TeamParticipationToTeam--><g id="link_TeamParticipation_TeamParticipationToTeam"><path codeLine="39" d="M1057.1332,268.63 C1069.4032,306.77 1089.7932,370.21 1099.9632,401.84 " fill="none" id="TeamParticipation-TeamParticipationToTeam" style="stroke:#181818;stroke-width:1.0;"/><polygon fill="#000000" points="1090.6637,348.3264,1090.6929,338.8159,1085.0972,340.6151,1090.6637,348.3264" style="stroke:#000000;stroke-width:1.0;"/><text fill="#000000" font-family="sans-serif" font-size="13" lengthAdjust="spacing" textLength="31" x="1098.1332" y="348.0669">form</text><text fill="#000000" font-family="sans-serif" font-size="13" lengthAdjust="spacing" textLength="28" x="1028.3141" y="288.8537">1...n</text></g><!--link TeamParticipationToTeam to Team--><g id="link_TeamParticipationToTeam_Team"><path codeLine="40" d="M1108.9032,442.24 C1113.1432,471.65 1119.5098,515.8329 1124.0698,547.4429 " fill="none" id="TeamParticipationToTeam-to-Team" style="stroke:#181818;stroke-width:1.0;"/><polygon fill="#181818" points="1125.7832,559.32,1128.8855,552.8104,1124.0698,547.4429,1120.9675,553.9526,1125.7832,559.32" style="stroke:#181818;stroke-width:1.0;"/><text fill="#000000" font-family="sans-serif" font-size="13" lengthAdjust="spacing" textLength="8" x="1115.8998" y="548.2859">1</text></g><!--link Team to TeamToBattleParticipation--><g id="link_Team_TeamToBattleParticipation"><path codeLine="50" d="M1129.6332,607.68 C1130.3832,641.72 1131.7632,705.09 1132.5532,740.961 " fill="none" id="Team-TeamToBattleParticipation" style="stroke:#181818;stroke-width:1.0;"/><polygon fill="#000000" points="1137.2427,687.5652,1139.9828,678.4579,1134.1064,678.5867,1137.2427,687.5652" style="stroke:#000000;stroke-width:1.0;"/><text fill="#000000" font-family="sans-serif" font-size="13" lengthAdjust="spacing" textLength="65" x="1146.1332" y="687.0669">takes part</text><text fill="#000000" font-family="sans-serif" font-size="13" lengthAdjust="spacing" textLength="8" x="1120.7801" y="627.4851">1</text></g><!--link TeamToBattleParticipation to BattleParticipation--><g id="link_TeamToBattleParticipation_BattleParticipation"><path codeLine="51" d="M1133.1332,796.009 C1133.1332,831.434 1133.1332,882.515 1133.1332,923.672 " fill="none" id="TeamToBattleParticipation-to-BattleParticipation" style="stroke:#181818;stroke-width:1.0;"/><polygon fill="none" points="1133.1332,935.672,1137.1332,929.672,1133.1332,923.672,1129.1332,929.672,1133.1332,935.672" style="stroke:#181818;stroke-width:1.0;"/><text fill="#000000" font-family="sans-serif" font-size="13" lengthAdjust="spacing" textLength="28" x="1102.9027" y="925.0796">0...1</text></g><!--link Student to TournamentSubscription--><g id="link_Student_TournamentSubscription"><path codeLine="58" d="M860.3672,63.31 C854.0062,147.48 833.0814,424.3341 825.0394,530.7541 " fill="none" id="Student-to-TournamentSubscription" style="stroke:#181818;stroke-width:1.0;"/><polygon fill="none" points="824.1352,542.72,828.5759,537.0385,825.0394,530.7541,820.5987,536.4356,824.1352,542.72" style="stroke:#181818;stroke-width:1.0;"/><text fill="#000000" font-family="sans-serif" font-size="13" lengthAdjust="spacing" textLength="68" x="841.1282" y="348.0669">subscribes</text><text fill="#000000" font-family="sans-serif" font-size="13" lengthAdjust="spacing" textLength="8" x="850.963" y="83.1468">1</text><text fill="#000000" font-family="sans-serif" font-size="13" lengthAdjust="spacing" textLength="28" x="794.3145" y="531.8352">0...n</text></g><!--link TournamentSubscription to TournamentSubscriptionToTournament--><g id="link_TournamentSubscription_TournamentSubscriptionToTournament"><path codeLine="69" d="M818.5872,624.09 C814.6632,685.26 807.2742,800.394 804.3572,845.847 " fill="none" id="TournamentSubscription-TournamentSubscriptionToTournament" style="stroke:#181818;stroke-width:1.0;"/><polygon fill="#000000" points="820.808,687.5561,824.3201,678.7178,818.4543,678.3414,820.808,687.5561" style="stroke:#000000;stroke-width:1.0;"/><text fill="#000000" font-family="sans-serif" font-size="13" lengthAdjust="spacing" textLength="69" x="830.1282" y="687.0669">referred to</text><text fill="#000000" font-family="sans-serif" font-size="13" lengthAdjust="spacing" textLength="28" x="788.0544" y="643.5619">0...n</text></g><!--link TournamentSubscriptionToTournament to Tournament--><g id="link_TournamentSubscriptionToTournament_Tournament"><path codeLine="70" d="M794.3772,886.107 C771.3042,934.472 704.1312,1062.937 611.1282,1134 C589.2962,1150.682 544.971,1169.3753 492.686,1188.7713 " fill="none" id="TournamentSubscriptionToTournament-to-Tournament" style="stroke:#181818;stroke-width:1.0;"/><polygon fill="#181818" points="481.4352,1192.945,488.4518,1194.6084,492.686,1188.7713,485.6694,1187.1079,481.4352,1192.945" style="stroke:#181818;stroke-width:1.0;"/><text fill="#000000" font-family="sans-serif" font-size="13" lengthAdjust="spacing" textLength="8" x="489.1824" y="1186.8685">1</text></g><!--link BattleParticipation to BattleParticipationToBattle--><g id="link_BattleParticipation_BattleParticipationToBattle"><path codeLine="87" d="M1038.0592,991.879 C993.1202,1003.969 943.4412,1026.19 916.1282,1067 C886.2462,1111.65 903.4892,1179.436 914.7582,1212.297 " fill="none" id="BattleParticipation-BattleParticipationToBattle" style="stroke:#181818;stroke-width:1.0;"/><polygon fill="#000000" points="918.6872,1104.9301,925.6679,1098.4709,920.5381,1095.6013,918.6872,1104.9301" style="stroke:#000000;stroke-width:1.0;"/><text fill="#000000" font-family="sans-serif" font-size="13" lengthAdjust="spacing" textLength="69" x="930.1282" y="1105.0669">referred to</text><text fill="#000000" font-family="sans-serif" font-size="13" lengthAdjust="spacing" textLength="28" x="1002.0494" y="989.5443">0...n</text></g><!--link BattleParticipationToBattle to Battle--><g id="link_BattleParticipationToBattle_Battle"><path codeLine="88" d="M914.0472,1252.936 C900.6592,1282.532 870.9392,1338.365 827.1282,1366 C720.2082,1433.442 666.2582,1373.712 547.1282,1416 C535.5332,1420.116 534.6738,1419.9881 523.0808,1425.3441 " fill="none" id="BattleParticipationToBattle-to-Battle" style="stroke:#181818;stroke-width:1.0;"/><polygon fill="#181818" points="512.1872,1430.377,519.3116,1431.4918,523.0808,1425.3441,515.9564,1424.2294,512.1872,1430.377" style="stroke:#181818;stroke-width:1.0;"/><text fill="#000000" font-family="sans-serif" font-size="13" lengthAdjust="spacing" textLength="8" x="519.9908" y="1422.4321">1</text></g><!--link Educator to Tournament--><g id="link_Educator_Tournament"><path codeLine="121" d="M230.0092,792.685 C217.5002,837.304 195.1562,937.715 220.1282,1017 C241.7662,1085.698 294.1102,1151.554 330.8432,1191.753 " fill="none" id="Educator-Tournament" style="stroke:#181818;stroke-width:1.0;"/><polygon fill="#000000" points="226.3531,981.4141,226.9866,971.9246,221.2879,973.3645,226.3531,981.4141" style="stroke:#000000;stroke-width:1.0;"/><text fill="#000000" font-family="sans-serif" font-size="13" lengthAdjust="spacing" textLength="48" x="234.1282" y="981.0669">creates</text><text fill="#000000" font-family="sans-serif" font-size="13" lengthAdjust="spacing" textLength="8" x="219.2989" y="812.4913">1</text><text fill="#000000" font-family="sans-serif" font-size="13" lengthAdjust="spacing" textLength="28" x="294.0179" y="1180.8736">0...n</text></g><!--link Educator to Tournament--><g id="link_Educator_Tournament"><path codeLine="122" d="M247.1352,792.743 C253.4742,807.806 261.6642,827.918 268.1282,846 C312.2882,969.536 346.9612,1121.414 361.9952,1191.984 " fill="none" id="Educator-Tournament-1" style="stroke:#181818;stroke-width:1.0;"/><polygon fill="#000000" points="326.5106,981.3715,326.8342,971.8664,321.1854,973.4916,326.5106,981.3715" style="stroke:#000000;stroke-width:1.0;"/><text fill="#000000" font-family="sans-serif" font-size="13" lengthAdjust="spacing" textLength="63" x="334.1282" y="981.0669">is allowed</text><text fill="#000000" font-family="sans-serif" font-size="13" lengthAdjust="spacing" textLength="28" x="252.9869" y="812.5634">0...n</text><text fill="#000000" font-family="sans-serif" font-size="13" lengthAdjust="spacing" textLength="28" x="330.1911" y="1180.8445">0...n</text></g><!--link Educator to Battle--><g id="link_Educator_Battle"><path codeLine="123" d="M210.6032,792.691 C149.1422,849.386 6,1000.163 57.1284,1134 C100.497,1247.525 196.5042,1348.238 274.0092,1415.814 " fill="none" id="Educator-Battle" style="stroke:#181818;stroke-width:1.0;"/><polygon fill="#000000" points="103.6222,1070.5921,101.6141,1079.8882,107.4617,1079.2932,103.6222,1070.5921" style="stroke:#000000;stroke-width:1.0;"/><text fill="#000000" font-family="sans-serif" font-size="13" lengthAdjust="spacing" textLength="69" x="113.1284" y="1080.0669">created by</text><path d="M62.1284,1089.1328 L62.1284,1129.1328 L220.1284,1129.1328 L220.1284,1099.1328 L210.1284,1089.1328 L62.1284,1089.1328 " fill="#FEFFDD" style="stroke:#181818;stroke-width:0.5;"/><path d="M210.1284,1089.1328 L210.1284,1099.1328 L220.1284,1099.1328 L210.1284,1089.1328 " fill="#FEFFDD" style="stroke:#181818;stroke-width:0.5;"/><text fill="#000000" font-family="sans-serif" font-size="13" lengthAdjust="spacing" textLength="133" x="68.1284" y="1106.1997">must be tournament</text><text fill="#000000" font-family="sans-serif" font-size="13" lengthAdjust="spacing" textLength="135" x="68.1284" y="1121.3325">creator or authorized</text><text fill="#000000" font-family="sans-serif" font-size="13" lengthAdjust="spacing" textLength="8" x="195.1627" y="812.4988">1</text><text fill="#000000" font-family="sans-serif" font-size="13" lengthAdjust="spacing" textLength="28" x="235.3993" y="1404.8641">0...n</text></g><!--link Tournament to TournamentState--><g id="link_Tournament_TournamentState"><path codeLine="129" d="M481.2572,1232.5 C504.4792,1232.5 527.7022,1232.5 550.9242,1232.5 " fill="none" id="Tournament-TournamentState" style="stroke:#181818;stroke-width:1.0;"/></g><!--reverse link Tournament to Battle--><g id="link_Tournament_Battle"><path codeLine="131" d="M373.5619,1285.0965 C376.0469,1322.4435 379.0612,1367.733 382.2652,1415.886 " fill="none" id="Tournament-backto-Battle" style="stroke:#181818;stroke-width:1.0;"/><polygon fill="#181818" points="372.7652,1273.123,369.1724,1279.3753,373.5619,1285.0965,377.1547,1278.8442,372.7652,1273.123" style="stroke:#181818;stroke-width:1.0;"/><polygon fill="#000000" points="384.4602,1353.5554,386.7921,1344.3351,380.9272,1344.7254,384.4602,1353.5554" style="stroke:#000000;stroke-width:1.0;"/><text fill="#000000" font-family="sans-serif" font-size="13" lengthAdjust="spacing" textLength="67" x="393.1282" y="1353.0669">formed by</text><text fill="#000000" font-family="sans-serif" font-size="13" lengthAdjust="spacing" textLength="8" x="364.5565" y="1292.6">1</text><text fill="#000000" font-family="sans-serif" font-size="13" lengthAdjust="spacing" textLength="28" x="352.6203" y="1404.942">0...n</text></g><!--link Battle to BattleState--><g id="link_Battle_BattleState"><path codeLine="133" d="M512.3172,1505 C535.5752,1505 558.8342,1505 582.0922,1505 " fill="none" id="Battle-BattleState" style="stroke:#181818;stroke-width:1.0;"/></g><!--reverse link Battle to Repository--><g id="link_Battle_Repository"><path codeLine="135" d="M452.9499,1406.6458 C472.9119,1383.0878 489.7762,1369.833 518.1282,1357 C577.2442,1330.243 748.0482,1338.115 810.1282,1357 C889.0632,1381.012 964.6452,1445.37 1001.9512,1480.794 " fill="none" id="Battle-backto-Repository" style="stroke:#181818;stroke-width:1.0;"/><polygon fill="none" points="445.1922,1415.801,452.1228,1413.8093,452.9499,1406.6458,446.0193,1408.6375,445.1922,1415.801" style="stroke:#181818;stroke-width:1.0;"/><path d="M523.1282,1336 L523.1282,1361 L805.1282,1361 L805.1282,1346 L795.1282,1336 L523.1282,1336 " fill="#FEFFDD" style="stroke:#181818;stroke-width:0.5;"/><path d="M795.1282,1336 L795.1282,1346 L805.1282,1346 L795.1282,1336 " fill="#FEFFDD" style="stroke:#181818;stroke-width:0.5;"/><text fill="#000000" font-family="sans-serif" font-size="13" lengthAdjust="spacing" textLength="261" x="529.1282" y="1353.0669">Exists only past the REGISTRATION state</text><text fill="#000000" font-family="sans-serif" font-size="13" lengthAdjust="spacing" textLength="28" x="420.7584" y="1404.85">0...1</text><text fill="#000000" font-family="sans-serif" font-size="13" lengthAdjust="spacing" textLength="28" x="964.1683" y="1469.7532">0...1</text></g><!--reverse link BattleParticipation to BattleParticipationToRepository--><g id="link_BattleParticipation_BattleParticipationToRepository"><path codeLine="145" d="M1140.2993,1028.9952 C1142.8393,1047.2242 1144.1332,1056.486 1146.4032,1072.791 " fill="none" id="BattleParticipation-backto-BattleParticipationToRepository" style="stroke:#181818;stroke-width:1.0;"/><polygon fill="none" points="1138.6432,1017.11,1135.5095,1023.6046,1140.2993,1028.9952,1143.433,1022.5006,1138.6432,1017.11" style="stroke:#181818;stroke-width:1.0;"/><text fill="#000000" font-family="sans-serif" font-size="13" lengthAdjust="spacing" textLength="28" x="1109.3439" y="1036.585">0...1</text></g><!--link BattleParticipationToRepository to Repository--><g id="link_BattleParticipationToRepository_Repository"><path codeLine="146" d="M1142.7132,1128.035 C1132.8432,1163.13 1114.7032,1226.865 1098.1332,1281 C1075.6732,1354.327 1047.2532,1440.575 1033.8222,1480.959 " fill="none" id="BattleParticipationToRepository-Repository" style="stroke:#181818;stroke-width:1.0;"/><text fill="#000000" font-family="sans-serif" font-size="13" lengthAdjust="spacing" textLength="28" x="1004.2063" y="1469.9605">0...1</text></g><!--reverse link Github to Repository--><g id="link_Github_Repository"><path codeLine="148" d="M875.7202,1505 C906.3822,1505 936.8112,1505 970.6132,1505 " fill="none" id="Github-backto-Repository" style="stroke:#181818;stroke-width:1.0;"/><polygon fill="#181818" points="863.7202,1505,869.7202,1509,875.7202,1505,869.7202,1501,863.7202,1505" style="stroke:#181818;stroke-width:1.0;"/><text fill="#000000" font-family="sans-serif" font-size="13" lengthAdjust="spacing" textLength="35" x="899.6282" y="1498.0669">hosts</text><text fill="#000000" font-family="sans-serif" font-size="13" lengthAdjust="spacing" textLength="8" x="871.6632" y="1500.7428">1</text><text fill="#000000" font-family="sans-serif" font-size="13" lengthAdjust="spacing" textLength="28" x="934.5755" y="1501.2074">0...n</text></g><!--link TournamentSubscription to TournamentSubscriptionToBadge--><g id="link_TournamentSubscription_TournamentSubscriptionToBadge"><path codeLine="154" d="M757.4262,624.03 C733.7642,639.18 706.9042,656.93 683.1282,674 C649.1582,698.39 611.5572,728.817 588.1332,748.206 " fill="none" id="TournamentSubscription-TournamentSubscriptionToBadge" style="stroke:#181818;stroke-width:1.0;"/><polygon fill="#000000" points="684.0965,685.5237,693.1281,682.5437,689.6517,677.8042,684.0965,685.5237" style="stroke:#000000;stroke-width:1.0;"/><text fill="#000000" font-family="sans-serif" font-size="13" lengthAdjust="spacing" textLength="36" x="697.1282" y="687.0669">earns</text><text fill="#000000" font-family="sans-serif" font-size="13" lengthAdjust="spacing" textLength="28" x="717.0424" y="643.7946">0...n</text></g><!--link TournamentSubscriptionToBadge to Badge--><g id="link_TournamentSubscriptionToBadge_Badge"><path codeLine="155" d="M567.6202,788.511 C571.9932,821.878 581.1362,891.632 586.9342,935.873 " fill="none" id="TournamentSubscriptionToBadge-Badge" style="stroke:#181818;stroke-width:1.0;"/><text fill="#000000" font-family="sans-serif" font-size="13" lengthAdjust="spacing" textLength="28" x="555.7552" y="925.0135">0...n</text></g><!--link Educator to Badge--><g id="link_Educator_Badge"><path codeLine="157" d="M285.4502,788 C320.6232,802.175 368.9322,823.136 409.1282,846 C456.1542,872.748 506.0632,908.628 541.8622,935.838 " fill="none" id="Educator-Badge" style="stroke:#181818;stroke-width:1.0;"/><polygon fill="#000000" points="481.4598,868.5639,475.0918,861.4999,472.1559,866.592,481.4598,868.5639" style="stroke:#000000;stroke-width:1.0;"/><text fill="#000000" font-family="sans-serif" font-size="13" lengthAdjust="spacing" textLength="48" x="486.1282" y="870.5669">creates</text><text fill="#000000" font-family="sans-serif" font-size="13" lengthAdjust="spacing" textLength="8" x="293.135" y="786.8391">1</text><text fill="#000000" font-family="sans-serif" font-size="13" lengthAdjust="spacing" textLength="28" x="503.2181" y="924.9727">0...n</text></g><!--link Badge to Tournament--><g id="link_Badge_Tournament"><path codeLine="158" d="M557.4412,1017.188 C515.8562,1064.766 446.5762,1144.033 404.9382,1191.673 " fill="none" id="Badge-Tournament" style="stroke:#181818;stroke-width:1.0;"/><polygon fill="#000000" points="509.8378,1104.3311,518.0031,1099.4548,513.5774,1095.5866,509.8378,1104.3311" style="stroke:#000000;stroke-width:1.0;"/><text fill="#000000" font-family="sans-serif" font-size="13" lengthAdjust="spacing" textLength="71" x="522.1282" y="1105.0669">is assigned</text><text fill="#000000" font-family="sans-serif" font-size="13" lengthAdjust="spacing" textLength="28" x="521.986" y="1036.675">0...n</text><text fill="#000000" font-family="sans-serif" font-size="13" lengthAdjust="spacing" textLength="28" x="380.2548" y="1181.0807">0...n</text></g><!--SRC=[ZLPDR-Cu3BthLn0vpY3TzBH0q2sG3s-HnJO9uinveDXAewajPIMvdUvW__kAacNBYPEqXzIII8fyV2IbNxauKaLB439dcXtXzn7HpQQYuXKtxqSZGhA2QWr9NcNKI0M_o7zXBpLLpeJnMm-FmCKRDspEQIb5JaWu7jmFO7Xos5dPqy7exkvE363XziVm29g9N7z2Jh6CyJUc7xvz7OqceyVmdtWHhu4UIEV8bj5oJPNX6JzImwL06qR23ya52Jh3ONr1QgXX8Tpwy1S1-AhnODoHiXWmKPNndfC5cCncoNgRpDrYa_oLpC9YdIpdY-KJwdRGokMxG8VhQFkTfgzCWqsO2GwUYGLVdUMPB4jkD3fjy48XhOEqHsihSOki18DQ5SfA6pZGDuPfCNKkDQ4s9-R0GDeVfICfccNiQ9WxBIqiEU1jvDp1mRsFq4TyoHSCTozLIIwSr-fVcWp7Y7Xwnj5kvPGQKx2E9J8fYX1l7ShEXbljTARu3aEHBbOZAoLeQQN8Cmeffeyiin1nyLj9VxOcCYcCejn-aaaNI2cA3pJEXVsq5j59Qe22uIN3G87Hx00xvsGNlPeUmyjnd53ZeXnQaKrrz05IOzYdwtYbs0lNDaJScRjom5_7k4mgk-IUQ5UPtQ2PUgIFFeO6TzsaibUoPhY_3ucDg-WyyYicGQyjowMJt2ANoQavUFW3EdkCvWKNSQBwNGqn1wxVTCAtjprJoj6FtDRe5a8RpHc6dIuMsJKXWpq1jZYwFdUYvIoctwRfRBEOOay3M2o_hpUhfqsIfdOrNosJE0azl0f4RT47SieoXB-pTmP_7s5FiBzozodeLqGxQDUUTugcWxBVQX2sOxUbUseK5ozEMExDErLihUGFsrR6yASiSgRmo7QOkfHqmtNRSSxs-j29QhFQbLphlhEX_VC6_gcuxMlFL5IqIDveKTMjPIfbqH0W2iW5kacU5kbsCzakLalFXUT5clh5RBLCLtylvk4maC6ZjM57gRbzNNouPkqOifF6o1BaFZeTGy9nrFW4QMp9D41jkoQzriQUh6QrYvylKvg_r2aot6M-JODjtZdlvCQgDMyWryc6FKqCoPCfHd4ujjA1UtqQW2fS0oqA-SxoYtVKKOxXeRuWXzs7HyhIswRn5KWOMks80kA4hJc4fp87gVY_zfQcLaZSEyuQGNoA_dmvSoXCPkyE2NNH8NlO3RD63flFDhMTK4Zoqp9O-q5vf3OgdBmnly0LLHJ7rQuINTDhsKzQ8ESt03vn-1w86_quW0Fw7ESuQdCBxhluHFlneTzoyCOvz897QdRx93KvYYld86tSjqUWAmhYIoFmAMTxsoPozp8n1wxZDr1wzaBSLyMU5mKombbfIkdp0t9utJrNCumgeSbrkGvTCQuhvHNiXlBrEv-hNTjENon0_mC0]--></g></svg>