<?xml version="1.0" encoding="us-ascii" standalone="no"?><svg xmlns="http://www.w3.org/2000/svg" xmlns:xlink="http://www.w3.org/1999/xlink" contentStyleType="text/css" height="1110px" preserveAspectRatio="none" style="width:1436px;height:1110px;background:#FFFFFF;" version="1.1" viewBox="0 0 1436 1110" width="1436px" zoomAndPan="magnify"><defs/><g><!--cluster User--><g id="cluster_User"><rect fill="none" height="202" rx="2.5" ry="2.5" style="stroke:#181818;stroke-width:1.0;" width="358" x="580" y="541"/><rect fill="none" height="10" style="stroke:#181818;stroke-width:1.0;" width="15" x="918" y="546"/><rect fill="none" height="2" style="stroke:#181818;stroke-width:1.0;" width="4" x="916" y="548"/><rect fill="none" height="2" style="stroke:#181818;stroke-width:1.0;" width="4" x="916" y="552"/><text fill="#000000" font-family="sans-serif" font-size="14" font-weight="bold" lengthAdjust="spacing" textLength="36" x="741" y="566.9951">User</text></g><g id="cluster_##11"><path d="M670.8628,827.5843 C674.5753,820.8624 679.6226,821.7999 683.4501,827.4674 C686.4259,820.7762 692.9458,820.966 697.1128,826.09 C700.5633,820.7171 704.7961,819.4123 709.1887,825.0575 C712.939,820.0741 718.0416,819.0916 721.6838,825.1795 C724.2853,820.0633 729.1782,818.8846 733.1173,823.6285 C736.5136,816.3104 742.5157,816.1053 746.8499,822.7029 C749.2406,816.8042 754.4488,817.7114 757.5113,821.9998 C761.2598,816.2492 765.71,816.2763 769.5211,821.9338 C774.7578,816.3174 781.2588,817.9744 784.1767,824.6896 C787.7588,819.6452 792.2318,819.3062 795.5164,825.0036 C798.9115,819.3634 804.8512,819.0594 808.4955,824.7172 C812.9975,820.3864 817.8012,821.4975 820.4119,827.0074 C824.5206,820.8405 830.7848,821.9391 833.7175,828.2604 C836.6533,822.0983 841.3389,821.7458 845.4423,827.0684 C852.8138,831.0676 855.6791,836.0937 848.1889,842.7037 C858.1595,845.2941 860.4918,853.0912 852.4654,860.1046 C858.6546,866.1541 855.51,872.2907 848.1513,874.1911 C855.9439,880.7611 853.0733,885.4912 845.9832,890.0231 C842.5975,897.9582 836.7154,896.9445 831.9769,891.432 C827.8477,897.5372 821.636,896.7013 819.2208,889.7566 C816.2812,894.9349 812.2412,895.4364 808.7422,890.3263 C804.9214,897.1139 798.1314,895.9975 794.4182,890.2037 C790.9935,895.1171 786.6501,895.816 782.866,890.6142 C779.4509,896.6503 774.3991,897.0506 770.606,890.9976 C766.698,896.6392 761.6766,896.8183 757.752,891.0163 C754.1772,897.2078 749.9441,897.9004 745.7942,891.5653 C742.515,899.0113 735.9468,897.8824 732.3056,891.9295 C729.2585,897.7844 723.7558,897.5597 720.4375,892.2169 C716.4788,896.9765 710.8138,897.4916 707.9016,891.0461 C704.1303,895.7657 700.4456,895.4665 696.9628,890.713 C693.2414,897.7537 686.7146,896.6495 683.7701,889.9662 C679.17,895.5431 675.0283,894.7996 671.1841,889.121 C662.391,886.6722 661.2114,880.5195 666.5805,873.812 C658.8648,870.2449 656.8459,864.9099 662.725,858.0231 C658.0433,852.6595 658.3017,846.2747 666.2441,844.1026 C660.8217,837.242 662.137,830.4889 670.8628,827.5843 " fill="none" style="stroke:#181818;stroke-width:1.0;"/></g><g id="cluster_##14"><path d="M459.8129,827.1733 C463.4184,820.8477 467.9086,820.8309 472.0938,826.584 C474.8738,820.8209 480.4741,821.0552 483.6175,826.2001 C486.9258,819.153 491.3162,818.4339 496.342,824.5383 C499.9423,819.5316 506.1501,820.1061 508.837,825.6228 C510.6879,819.4821 515.3636,818.1709 519.6505,823.2816 C523.0017,817.5447 528.7386,816.584 532.9451,822.2877 C535.085,815.9391 540.8401,816.4814 544.4055,820.7488 C548.7312,815.1096 555.5353,814.5555 558.3081,822.3553 C561.8927,817.9053 566.6448,817.6289 569.5734,823.1002 C573.7266,817.7059 579.821,816.888 582.7044,824.3928 C586.2031,819.7986 590.8445,819.4878 593.8233,824.9667 C598.1304,820.0088 603.6491,819.7186 606.4057,826.6128 C609.8977,820.1152 616.3071,821.3348 619.3107,827.1258 C622.9723,820.9275 627.2039,822.2568 630.8737,827.1173 C641.3413,829.6702 642.772,835.5527 636.5547,843.7905 C644.0033,848.3693 644.6666,853.354 639.0096,859.9266 C646.1173,866.3045 644.7705,871.7638 635.9858,874.9409 C641.5413,881.3409 639.3021,888.9936 630.3512,889.9465 C627.3569,894.8975 622.5892,894.6239 619.4142,890.1563 C616.6167,896.2592 611.2306,897.4944 606.3113,892.7098 C602.8952,897.422 597.3804,896.8366 594.7214,891.809 C592.016,899.0842 585.4692,899.019 580.9055,893.8766 C577.9104,898.9714 572.4911,899.3615 569.2061,894.2076 C565.4029,900.6509 561.0952,899.9568 556.7145,894.8313 C554.4083,901.101 549.8552,902.7221 545.1045,897.248 C540.1187,902.1561 535.2342,902.6211 532.3953,895.0598 C529.2781,900.4245 525.0663,901.2551 521.5141,895.4848 C516.4466,901.0962 510.7076,900.3479 508.6814,892.57 C505.2873,898.1407 499.6224,899.4368 495.8866,892.9321 C492.5705,898.3647 487.0919,897.7391 484.9099,891.8342 C480.4023,898.2411 473.8608,898.716 470.3784,890.7945 C466.716,895.8391 463.0853,894.6431 460.3294,889.8669 C452.8229,887.1331 450.8402,879.3293 457.4417,874.024 C449.0534,870.6242 450.0457,863.9715 455.9318,859.125 C449.4743,854.189 450.6629,847.9655 457.771,844.7672 C449.7865,838.6486 450.201,831.2497 459.8129,827.1733 " fill="none" style="stroke:#181818;stroke-width:1.0;"/></g><g id="cluster_##17"><path d="M669.7887,197.9117 C673.5129,191.5637 678.4457,191.2002 682.4466,197.6378 C685.5194,191.0067 691.4099,190.6321 695.9096,196.0424 C699.7254,190.8328 704.3881,189.8346 708.0048,196.2497 C711.8025,189.3272 716.5679,187.9848 721.5825,195.0702 C724.2355,189.4489 729.4195,187.6841 733.8582,193.0806 C736.4852,186.7859 741.5824,186.3187 745.2328,192.1182 C749.9177,185.2964 755.0871,185.5546 759.0011,192.869 C763.1058,187.5589 768.4348,189.318 771.0089,194.6036 C775.7371,189.3345 780.7914,190.2449 784.2545,196.1087 C787.9577,189.1448 792.8343,189.7685 797.1121,195.5279 C801.7252,189.6569 805.8813,190.7745 809.3148,196.7436 C813.8251,191.9152 818.2632,190.9696 821.9275,197.6691 C829.2747,200.7882 832.686,208.4248 824.4658,213.9682 C831.7283,217.0082 832.4607,224.1597 826.2417,228.8125 C833.3534,235.6313 830.4913,239.9724 823.2158,243.9071 C829.4587,249.9173 829.4966,256.354 821.3207,260.7411 C818.2651,267.0695 813.1971,266.12 809.6587,261.2435 C804.9919,267.896 799.7879,267.4388 796.176,260.2182 C793.4564,265.7369 788.1137,265.9984 784.485,261.2538 C780.5917,267.4419 775.0798,267.3598 771.831,260.6228 C767.3311,267.2707 762.9648,268.2095 757.6925,261.4365 C753.9048,266.4126 749.9501,265.4983 746.9757,260.5576 C743.5003,267.1617 737.0534,268.6887 732.4572,261.76 C728.9142,265.8554 724.6371,266.561 721.7675,261.0135 C717.2878,266.1756 713.1828,266.6568 709.1585,260.5059 C706.0495,266.9316 699.7552,266.4419 696.3322,260.8407 C691.552,267.6097 687.2924,265.824 683.3702,259.9604 C679.9466,266.198 673.184,266.7409 669.564,260.1722 C661.8444,255.7248 662.4544,248.662 669.3354,244.0082 C661.3855,241.8193 661.8102,234.7231 666.8343,230.1864 C658.8115,224.1781 660.2722,216.9486 668.6374,212.6226 C661.5187,207.9909 663.0499,201.4589 669.7887,197.9117 " fill="none" style="stroke:#181818;stroke-width:1.0;"/></g><!--cluster Platform--><g id="cluster_Platform"><rect fill="none" height="170" rx="2.5" ry="2.5" style="stroke:#181818;stroke-width:1.0;" width="458" x="114" y="432"/><rect fill="none" height="10" style="stroke:#181818;stroke-width:1.0;" width="15" x="552" y="437"/><rect fill="none" height="2" style="stroke:#181818;stroke-width:1.0;" width="4" x="550" y="439"/><rect fill="none" height="2" style="stroke:#181818;stroke-width:1.0;" width="4" x="550" y="443"/><text fill="#000000" font-family="sans-serif" font-size="14" font-weight="bold" lengthAdjust="spacing" textLength="72" x="307" y="457.9951">Platform</text></g><!--cluster Notification--><g id="cluster_Notification"><rect fill="none" height="246" rx="2.5" ry="2.5" style="stroke:#181818;stroke-width:1.0;" width="385" x="18" y="858"/><rect fill="none" height="10" style="stroke:#181818;stroke-width:1.0;" width="15" x="383" y="863"/><rect fill="none" height="2" style="stroke:#181818;stroke-width:1.0;" width="4" x="381" y="865"/><rect fill="none" height="2" style="stroke:#181818;stroke-width:1.0;" width="4" x="381" y="869"/><text fill="#000000" font-family="sans-serif" font-size="14" font-weight="bold" lengthAdjust="spacing" textLength="98" x="161.5" y="883.9951">Notification</text></g><!--cluster Badge--><g id="cluster_Badge"><rect fill="none" height="267.5" rx="2.5" ry="2.5" style="stroke:#181818;stroke-width:1.0;" width="275" x="1155" y="432"/><rect fill="none" height="10" style="stroke:#181818;stroke-width:1.0;" width="15" x="1410" y="437"/><rect fill="none" height="2" style="stroke:#181818;stroke-width:1.0;" width="4" x="1408" y="439"/><rect fill="none" height="2" style="stroke:#181818;stroke-width:1.0;" width="4" x="1408" y="443"/><text fill="#000000" font-family="sans-serif" font-size="14" font-weight="bold" lengthAdjust="spacing" textLength="50" x="1267.5" y="457.9951">Badge</text></g><g id="cluster_##42"><path d="M962.1946,512.1141 C965.5795,505.4673 970.2516,505.5938 974.7423,510.9589 C977.3274,504.8439 981.1235,503.4995 986.1446,508.4484 C989.8624,502.9652 993.5161,502.412 997.528,508.1501 C1000.543,502.8807 1006.0397,501.9937 1009.7142,507.3972 C1012.8806,502.2966 1016.6777,500.8888 1020.6061,506.6319 C1023.9218,500.5766 1028.9501,499.969 1032.6219,506.2861 C1035.4473,501.4425 1040.4937,501.5216 1043.2472,506.3649 C1046.9863,501.8219 1052.0688,502.4233 1054.0051,508.2376 C1058.25,502.2925 1062.2888,502.4971 1066.7455,508.0018 C1070.8189,503.4618 1076.2359,503.9547 1078.4364,510.0589 C1081.9681,503.7933 1087.3141,505.2072 1090.3166,510.5982 C1093.6951,505.1411 1098.0584,506.2106 1100.9509,511.0978 C1110.3968,513.205 1112.6632,518.9012 1105.858,526.2658 C1114.5117,528.5759 1115.0345,536.7455 1109.3359,542.1902 C1115.267,547.6471 1113.448,554.894 1106.2686,557.7697 C1112.1921,564.0513 1111.5119,571.2703 1102.0588,573.4141 C1097.816,579.7353 1093.6801,579.8104 1089.2405,573.6156 C1086.4561,579.7806 1081.9216,580.6097 1077.2485,575.6521 C1074.773,581.0762 1071.5569,581.7038 1067.1677,577.6979 C1064.5574,584 1058.6874,584.4484 1055.2897,578.4588 C1052.4105,584.2946 1048.9981,586.1177 1043.8791,580.7375 C1040.8803,587.1254 1034.7832,587.3426 1031.0486,581.51 C1027.3543,585.2641 1023.1501,584.1941 1021.5359,579.2383 C1017.5391,583.6701 1012.208,583.6498 1010.0253,577.3013 C1006.1574,583.871 1001.648,584.1337 997.4209,577.648 C992.7738,582.8179 987.4735,581.174 985.2261,575.0555 C981.8853,578.9384 977.4476,578.3122 975.5433,573.4627 C971.1949,579.9498 966.8294,579.4602 963.153,572.828 C956.3394,569.3269 955.096,562.8107 961.7816,558.0563 C953.7582,554.572 951.3858,548.6098 959.0321,542.3776 C952.8642,536.1662 953.6598,529.5533 962.0415,526.0185 C955.8497,522.0571 956.2319,515.9416 962.1946,512.1141 " fill="none" style="stroke:#181818;stroke-width:1.0;"/></g><text fill="#000000" font-family="sans-serif" font-size="14" lengthAdjust="spacing" textLength="4" x="658" y="519.6982">&#160;</text><rect fill="#F1F1F1" height="12" style="stroke:#181818;stroke-width:1.5;" width="12" x="654" y="535"/><text fill="#000000" font-family="sans-serif" font-size="14" lengthAdjust="spacing" textLength="4" x="691" y="761.9951">&#160;</text><rect fill="#F1F1F1" height="12" style="stroke:#181818;stroke-width:1.5;" width="12" x="687" y="737"/><!--entity User Service--><g id="elem_User Service"><rect fill="#F1F1F1" height="46.2969" rx="2.5" ry="2.5" style="stroke:#181818;stroke-width:0.5;" width="128" x="596" y="638"/><rect fill="#F1F1F1" height="10" style="stroke:#181818;stroke-width:0.5;" width="15" x="704" y="643"/><rect fill="#F1F1F1" height="2" style="stroke:#181818;stroke-width:0.5;" width="4" x="702" y="645"/><rect fill="#F1F1F1" height="2" style="stroke:#181818;stroke-width:0.5;" width="4" x="702" y="649"/><text fill="#000000" font-family="sans-serif" font-size="14" lengthAdjust="spacing" textLength="88" x="611" y="670.9951">User Service</text></g><!--entity User DB--><g id="elem_User DB"><path d="M759,648.5 C759,638.5 797,638.5 797,638.5 C797,638.5 835,638.5 835,648.5 L835,673.7969 C835,683.7969 797,683.7969 797,683.7969 C797,683.7969 759,683.7969 759,673.7969 L759,648.5 " fill="#F1F1F1" style="stroke:#181818;stroke-width:0.5;"/><path d="M759,648.5 C759,658.5 797,658.5 797,658.5 C797,658.5 835,658.5 835,648.5 " fill="none" style="stroke:#181818;stroke-width:0.5;"/><text fill="#000000" font-family="sans-serif" font-size="14" lengthAdjust="spacing" textLength="56" x="769" y="675.4951">User DB</text></g><!--entity University SSO 1--><g id="elem_University SSO 1"><rect fill="#F1F1F1" height="46.2969" rx="2.5" ry="2.5" style="stroke:#181818;stroke-width:0.5;" width="157" x="678.5" y="835"/><rect fill="#F1F1F1" height="10" style="stroke:#181818;stroke-width:0.5;" width="15" x="815.5" y="840"/><rect fill="#F1F1F1" height="2" style="stroke:#181818;stroke-width:0.5;" width="4" x="813.5" y="842"/><rect fill="#F1F1F1" height="2" style="stroke:#181818;stroke-width:0.5;" width="4" x="813.5" y="846"/><text fill="#000000" font-family="sans-serif" font-size="14" lengthAdjust="spacing" textLength="117" x="693.5" y="867.9951">University SSO 1</text></g><!--entity University SSO 2--><g id="elem_University SSO 2"><rect fill="#F1F1F1" height="46.2969" rx="2.5" ry="2.5" style="stroke:#181818;stroke-width:0.5;" width="156" x="466" y="835"/><rect fill="#F1F1F1" height="10" style="stroke:#181818;stroke-width:0.5;" width="15" x="602" y="840"/><rect fill="#F1F1F1" height="2" style="stroke:#181818;stroke-width:0.5;" width="4" x="600" y="842"/><rect fill="#F1F1F1" height="2" style="stroke:#181818;stroke-width:0.5;" width="4" x="600" y="846"/><text fill="#000000" font-family="sans-serif" font-size="14" lengthAdjust="spacing" textLength="116" x="481" y="867.9951">University SSO 2</text></g><!--entity Website CDN--><g id="elem_Website CDN"><rect fill="#F1F1F1" height="46.2969" rx="2.5" ry="2.5" style="stroke:#181818;stroke-width:0.5;" width="135" x="677.5" y="205"/><rect fill="#F1F1F1" height="10" style="stroke:#181818;stroke-width:0.5;" width="15" x="792.5" y="210"/><rect fill="#F1F1F1" height="2" style="stroke:#181818;stroke-width:0.5;" width="4" x="790.5" y="212"/><rect fill="#F1F1F1" height="2" style="stroke:#181818;stroke-width:0.5;" width="4" x="790.5" y="216"/><text fill="#000000" font-family="sans-serif" font-size="14" lengthAdjust="spacing" textLength="95" x="692.5" y="237.9951">Website CDN</text></g><text fill="#000000" font-family="sans-serif" font-size="14" lengthAdjust="spacing" textLength="4" x="426" y="410.6982">&#160;</text><rect fill="#F1F1F1" height="12" style="stroke:#181818;stroke-width:1.5;" width="12" x="422" y="426"/><text fill="#000000" font-family="sans-serif" font-size="14" lengthAdjust="spacing" textLength="4" x="208" y="620.9951">&#160;</text><rect fill="#F1F1F1" height="12" style="stroke:#181818;stroke-width:1.5;" width="12" x="204" y="596"/><!--entity Platform Service--><g id="elem_Platform Service"><rect fill="#F1F1F1" height="46.2969" rx="2.5" ry="2.5" style="stroke:#181818;stroke-width:0.5;" width="160" x="130" y="518"/><rect fill="#F1F1F1" height="10" style="stroke:#181818;stroke-width:0.5;" width="15" x="270" y="523"/><rect fill="#F1F1F1" height="2" style="stroke:#181818;stroke-width:0.5;" width="4" x="268" y="525"/><rect fill="#F1F1F1" height="2" style="stroke:#181818;stroke-width:0.5;" width="4" x="268" y="529"/><text fill="#000000" font-family="sans-serif" font-size="14" lengthAdjust="spacing" textLength="120" x="145" y="550.9951">Platform Service</text></g><!--entity Platform DB--><g id="elem_Platform DB"><path d="M325,528.5 C325,518.5 379,518.5 379,518.5 C379,518.5 433,518.5 433,528.5 L433,553.7969 C433,563.7969 379,563.7969 379,563.7969 C379,563.7969 325,563.7969 325,553.7969 L325,528.5 " fill="#F1F1F1" style="stroke:#181818;stroke-width:0.5;"/><path d="M325,528.5 C325,538.5 379,538.5 379,538.5 C379,538.5 433,538.5 433,528.5 " fill="none" style="stroke:#181818;stroke-width:0.5;"/><text fill="#000000" font-family="sans-serif" font-size="14" lengthAdjust="spacing" textLength="88" x="335" y="555.4951">Platform DB</text></g><text fill="#000000" font-family="sans-serif" font-size="14" lengthAdjust="spacing" textLength="4" x="122" y="836.6982">&#160;</text><rect fill="#F1F1F1" height="12" style="stroke:#181818;stroke-width:1.5;" width="12" x="118" y="852"/><text fill="#000000" font-family="sans-serif" font-size="14" lengthAdjust="spacing" textLength="4" x="16" y="1024.9951">&#160;</text><rect fill="#F1F1F1" height="12" style="stroke:#181818;stroke-width:1.5;" width="12" x="12" y="1000"/><!--entity Notification Queue--><g id="elem_Notification Queue"><path d="M164,944 L308,944 C313,944 313,957.1484 313,957.1484 C313,957.1484 313,970.2969 308,970.2969 L164,970.2969 C159,970.2969 159,957.1484 159,957.1484 C159,957.1484 159,944 164,944 " fill="#F1F1F1" style="stroke:#181818;stroke-width:0.5;"/><path d="M308,944 C303,944 303,957.1484 303,957.1484 C303,970.2969 308,970.2969 308,970.2969 " fill="none" style="stroke:#181818;stroke-width:0.5;"/><text fill="#000000" font-family="sans-serif" font-size="14" lengthAdjust="spacing" textLength="134" x="164" y="961.9951">Notification Queue</text></g><!--entity Notification Service--><g id="elem_Notification Service"><rect fill="#F1F1F1" height="46.2969" rx="2.5" ry="2.5" style="stroke:#181818;stroke-width:0.5;" width="182" x="40" y="1042"/><rect fill="#F1F1F1" height="10" style="stroke:#181818;stroke-width:0.5;" width="15" x="202" y="1047"/><rect fill="#F1F1F1" height="2" style="stroke:#181818;stroke-width:0.5;" width="4" x="200" y="1049"/><rect fill="#F1F1F1" height="2" style="stroke:#181818;stroke-width:0.5;" width="4" x="200" y="1053"/><text fill="#000000" font-family="sans-serif" font-size="14" lengthAdjust="spacing" textLength="142" x="55" y="1074.9951">Notification Service</text></g><!--entity Notification DB--><g id="elem_Notification DB"><path d="M257,1052.5 C257,1042.5 322,1042.5 322,1042.5 C322,1042.5 387,1042.5 387,1052.5 L387,1077.7969 C387,1087.7969 322,1087.7969 322,1087.7969 C322,1087.7969 257,1087.7969 257,1077.7969 L257,1052.5 " fill="#F1F1F1" style="stroke:#181818;stroke-width:0.5;"/><path d="M257,1052.5 C257,1062.5 322,1062.5 322,1062.5 C322,1062.5 387,1062.5 387,1052.5 " fill="none" style="stroke:#181818;stroke-width:0.5;"/><text fill="#000000" font-family="sans-serif" font-size="14" lengthAdjust="spacing" textLength="110" x="267" y="1079.4951">Notification DB</text></g><text fill="#000000" font-family="sans-serif" font-size="14" lengthAdjust="spacing" textLength="4" x="1240" y="410.6982">&#160;</text><rect fill="#F1F1F1" height="12" style="stroke:#181818;stroke-width:1.5;" width="12" x="1236" y="426"/><!--entity Badge Service--><g id="elem_Badge Service"><rect fill="#F1F1F1" height="46.2969" rx="2.5" ry="2.5" style="stroke:#181818;stroke-width:0.5;" width="142" x="1171" y="518"/><rect fill="#F1F1F1" height="10" style="stroke:#181818;stroke-width:0.5;" width="15" x="1293" y="523"/><rect fill="#F1F1F1" height="2" style="stroke:#181818;stroke-width:0.5;" width="4" x="1291" y="525"/><rect fill="#F1F1F1" height="2" style="stroke:#181818;stroke-width:0.5;" width="4" x="1291" y="529"/><text fill="#000000" font-family="sans-serif" font-size="14" lengthAdjust="spacing" textLength="102" x="1186" y="550.9951">Badge Service</text></g><!--entity Badge DB--><g id="elem_Badge DB"><path d="M1197,648.5 C1197,638.5 1242,638.5 1242,638.5 C1242,638.5 1287,638.5 1287,648.5 L1287,673.7969 C1287,683.7969 1242,683.7969 1242,683.7969 C1242,683.7969 1197,683.7969 1197,673.7969 L1197,648.5 " fill="#F1F1F1" style="stroke:#181818;stroke-width:0.5;"/><path d="M1197,648.5 C1197,658.5 1242,658.5 1242,658.5 C1242,658.5 1287,658.5 1287,648.5 " fill="none" style="stroke:#181818;stroke-width:0.5;"/><text fill="#000000" font-family="sans-serif" font-size="14" lengthAdjust="spacing" textLength="70" x="1207" y="675.4951">Badge DB</text></g><!--entity SonarCloud--><g id="elem_SonarCloud"><rect fill="#F1F1F1" height="46.2969" rx="2.5" ry="2.5" style="stroke:#181818;stroke-width:0.5;" width="121" x="970.5" y="518"/><rect fill="#F1F1F1" height="10" style="stroke:#181818;stroke-width:0.5;" width="15" x="1071.5" y="523"/><rect fill="#F1F1F1" height="2" style="stroke:#181818;stroke-width:0.5;" width="4" x="1069.5" y="525"/><rect fill="#F1F1F1" height="2" style="stroke:#181818;stroke-width:0.5;" width="4" x="1069.5" y="529"/><text fill="#000000" font-family="sans-serif" font-size="14" lengthAdjust="spacing" textLength="81" x="985.5" y="550.9951">SonarCloud</text></g><!--entity HTTP--><g id="elem_HTTP"><ellipse cx="578" cy="14" fill="#F1F1F1" rx="8" ry="8" style="stroke:#181818;stroke-width:0.5;"/><text fill="#000000" font-family="sans-serif" font-size="14" lengthAdjust="spacing" textLength="37" x="559.5" y="43.9951">HTTP</text></g><!--entity IUser--><g id="elem_IUser"><ellipse cx="636" cy="432" fill="#F1F1F1" rx="8" ry="8" style="stroke:#181818;stroke-width:0.5;"/><text fill="#000000" font-family="sans-serif" font-size="14" lengthAdjust="spacing" textLength="101" x="585.5" y="461.9951">User Interface</text></g><!--entity API Gateway--><g id="elem_API Gateway"><rect fill="#F1F1F1" height="46.2969" rx="2.5" ry="2.5" style="stroke:#181818;stroke-width:0.5;" width="129" x="513.5" y="205"/><rect fill="#F1F1F1" height="10" style="stroke:#181818;stroke-width:0.5;" width="15" x="622.5" y="210"/><rect fill="#F1F1F1" height="2" style="stroke:#181818;stroke-width:0.5;" width="4" x="620.5" y="212"/><rect fill="#F1F1F1" height="2" style="stroke:#181818;stroke-width:0.5;" width="4" x="620.5" y="216"/><text fill="#000000" font-family="sans-serif" font-size="14" lengthAdjust="spacing" textLength="89" x="528.5" y="237.9951">API Gateway</text></g><!--entity IGateway--><g id="elem_IGateway"><ellipse cx="578" cy="113" fill="#F1F1F1" rx="8" ry="8" style="stroke:#181818;stroke-width:0.5;"/><text fill="#000000" font-family="sans-serif" font-size="14" lengthAdjust="spacing" textLength="23" x="566.5" y="142.9951">API</text></g><!--entity IPlatform--><g id="elem_IPlatform"><ellipse cx="457" cy="323" fill="#F1F1F1" rx="8" ry="8" style="stroke:#181818;stroke-width:0.5;"/><text fill="#000000" font-family="sans-serif" font-size="14" lengthAdjust="spacing" textLength="133" x="390.5" y="352.9951">Platform Interface</text></g><!--entity INotification--><g id="elem_INotification"><ellipse cx="124" cy="743" fill="#F1F1F1" rx="8" ry="8" style="stroke:#181818;stroke-width:0.5;"/><text fill="#000000" font-family="sans-serif" font-size="14" lengthAdjust="spacing" textLength="155" x="46.5" y="772.9951">Notification Interface</text></g><!--entity IBadge--><g id="elem_IBadge"><ellipse cx="1020" cy="323" fill="#F1F1F1" rx="8" ry="8" style="stroke:#181818;stroke-width:0.5;"/><text fill="#000000" font-family="sans-serif" font-size="14" lengthAdjust="spacing" textLength="115" x="962.5" y="352.9951">Badge Interface</text></g><!--entity IBuild--><g id="elem_IBuild"><ellipse cx="837" cy="323" fill="#F1F1F1" rx="8" ry="8" style="stroke:#181818;stroke-width:0.5;"/><text fill="#000000" font-family="sans-serif" font-size="14" lengthAdjust="spacing" textLength="171" x="751.5" y="352.9951">Build and Test Interface</text></g><!--entity Build and Test Service--><g id="elem_Build and Test Service"><rect fill="#F1F1F1" height="46.2969" rx="2.5" ry="2.5" style="stroke:#181818;stroke-width:0.5;" width="198" x="949" y="409"/><rect fill="#F1F1F1" height="10" style="stroke:#181818;stroke-width:0.5;" width="15" x="1127" y="414"/><rect fill="#F1F1F1" height="2" style="stroke:#181818;stroke-width:0.5;" width="4" x="1125" y="416"/><rect fill="#F1F1F1" height="2" style="stroke:#181818;stroke-width:0.5;" width="4" x="1125" y="420"/><text fill="#000000" font-family="sans-serif" font-size="14" lengthAdjust="spacing" textLength="158" x="964" y="441.9951">Build and Test Service</text></g><!--entity ISat--><g id="elem_ISat"><ellipse cx="640" cy="323" fill="#F1F1F1" rx="8" ry="8" style="stroke:#181818;stroke-width:0.5;"/><text fill="#000000" font-family="sans-serif" font-size="14" lengthAdjust="spacing" textLength="174" x="553" y="352.9951">Static Analysis Interface</text></g><!--entity Static Analysis Service--><g id="elem_Static Analysis Service"><rect fill="#F1F1F1" height="46.2969" rx="2.5" ry="2.5" style="stroke:#181818;stroke-width:0.5;" width="201" x="712.5" y="409"/><rect fill="#F1F1F1" height="10" style="stroke:#181818;stroke-width:0.5;" width="15" x="893.5" y="414"/><rect fill="#F1F1F1" height="2" style="stroke:#181818;stroke-width:0.5;" width="4" x="891.5" y="416"/><rect fill="#F1F1F1" height="2" style="stroke:#181818;stroke-width:0.5;" width="4" x="891.5" y="420"/><text fill="#000000" font-family="sans-serif" font-size="14" lengthAdjust="spacing" textLength="161" x="727.5" y="441.9951">Static Analysis Service</text></g><!--link HTTP to IGateway--><g id="link_HTTP_IGateway"><path d="M578,23.27 C578,41.6 578,85.44 578,103.75 " fill="none" id="HTTP-IGateway" style="stroke:#181818;stroke-width:1.0;"/></g><!--link IGateway to API Gateway--><g id="link_IGateway_API Gateway"><path d="M578,122.127 C578,139.231 578,179.457 578,204.822 " fill="none" id="IGateway-API Gateway" style="stroke:#181818;stroke-width:1.0;"/></g><!--link HTTP to Website CDN--><g id="link_HTTP_Website CDN"><path d="M584.343,23.05 C607.936,53 691.14,158.626 727.63,204.95 " fill="none" id="HTTP-Website CDN" style="stroke:#181818;stroke-width:1.0;"/></g><!--link API Gateway to IUser--><g id="link_API Gateway_IUser"><path d="M584.317,251.002 C597.06,295.38 625.335,393.856 633.654,422.83 " fill="none" id="API Gateway-IUser" style="stroke:#181818;stroke-width:1.0;"/></g><!--link IUser to UserPortIn--><g id="link_IUser_UserPortIn"><path d="M637.804,441.042 C642.491,461.941 654.961,517.535 658.835,534.806 " fill="none" id="IUser-UserPortIn" style="stroke:#181818;stroke-width:1.0;"/></g><!--link UserPortIn to User Service--><g id="link_UserPortIn_User Service"><path d="M660,547.07 C660,562.51 660,609.613 660,637.874 " fill="none" id="UserPortIn-User Service" style="stroke:#181818;stroke-width:1.0;"/></g><!--link User Service to UserPortOut--><g id="link_User Service_UserPortOut"><path d="M669.192,684.284 C676.668,702.408 686.652,726.612 690.922,736.962 " fill="none" id="User Service-UserPortOut" style="stroke:#181818;stroke-width:1.0;"/></g><!--link User Service to User DB--><g id="link_User Service_User DB"><path d="M724.219,661 C735.78,661 747.342,661 758.904,661 " fill="none" id="User Service-User DB" style="stroke:#181818;stroke-width:1.0;"/></g><!--link UserPortOut to University SSO 1--><g id="link_UserPortOut_University SSO 1"><path d="M695.916,749.149 C704.328,764.002 729.011,807.582 744.303,834.582 " fill="none" id="UserPortOut-University SSO 1" style="stroke:#181818;stroke-width:1.0;"/></g><!--link UserPortOut to University SSO 2--><g id="link_UserPortOut_University SSO 2"><path d="M686.974,748.57 C668.082,762.897 609.126,807.609 573.089,834.939 " fill="none" id="UserPortOut-University SSO 2" style="stroke:#181818;stroke-width:1.0;"/></g><!--link API Gateway to IPlatform--><g id="link_API Gateway_IPlatform"><path d="M549.325,251.04 C522.349,271.773 483.573,301.576 466.121,314.99 " fill="none" id="API Gateway-IPlatform" style="stroke:#181818;stroke-width:1.0;"/></g><!--link IPlatform to PlatformPortIn--><g id="link_IPlatform_PlatformPortIn"><path d="M447.88,330.325 C439.099,337.026 426.382,348.493 421,362 C412.086,384.371 421.373,413.901 425.862,425.751 " fill="none" id="IPlatform-PlatformPortIn" style="stroke:#181818;stroke-width:1.0;"/></g><!--link IPlatform to PlatformPortIn--><!--link PlatformPortIn to Platform Service--><g id="link_PlatformPortIn_Platform Service"><path d="M421.711,436.087 C397.626,447.908 309.873,490.98 255.19,517.819 " fill="none" id="PlatformPortIn-Platform Service" style="stroke:#181818;stroke-width:1.0;"/></g><!--link Platform Service to PlatformPortOut--><g id="link_Platform Service_PlatformPortOut"><path d="M210,564.305 C210,575.792 210,588.828 210,595.854 " fill="none" id="Platform Service-PlatformPortOut" style="stroke:#181818;stroke-width:1.0;"/></g><!--link Platform Service to Platform DB--><g id="link_Platform Service_Platform DB"><path d="M290.209,541 C301.77,541 313.332,541 324.893,541 " fill="none" id="Platform Service-Platform DB" style="stroke:#181818;stroke-width:1.0;"/></g><!--link API Gateway to ISat--><g id="link_API Gateway_ISat"><path d="M592.693,251.04 C606.157,271.236 625.359,300.038 634.61,313.915 " fill="none" id="API Gateway-ISat" style="stroke:#181818;stroke-width:1.0;"/></g><!--link ISat to Static Analysis Service--><g id="link_ISat_Static Analysis Service"><path d="M649.297,324.923 C680.061,328.169 777.8,340.058 799,362 C810.89,374.307 813.963,393.789 814.306,408.918 " fill="none" id="ISat-Static Analysis Service" style="stroke:#181818;stroke-width:1.0;"/></g><!--link Static Analysis Service to SonarCloud--><g id="link_Static Analysis Service_SonarCloud"><path d="M863.264,455.11 C888.313,466.367 918.953,480.498 946,494 C961.012,501.495 977.266,510.153 991.501,517.923 " fill="none" id="Static Analysis Service-SonarCloud" style="stroke:#181818;stroke-width:1.0;"/></g><!--link API Gateway to IBuild--><g id="link_API Gateway_IBuild"><path d="M613.414,251.141 C627.792,259.456 644.805,268.466 661,275 C722.59,299.851 801.567,315.558 827.96,320.4 " fill="none" id="API Gateway-IBuild" style="stroke:#181818;stroke-width:1.0;"/></g><!--link IBuild to Build and Test Service--><g id="link_IBuild_Build and Test Service"><path d="M846.066,328.598 C872.965,342.238 953.607,383.132 1004.47,408.927 " fill="none" id="IBuild-Build and Test Service" style="stroke:#181818;stroke-width:1.0;"/></g><!--link API Gateway to IBadge--><g id="link_API Gateway_IBadge"><path d="M611.002,251.05 C625.719,259.872 643.631,269.28 661,275 C669.62,277.839 954.99,313.823 1010.64,320.824 " fill="none" id="API Gateway-IBadge" style="stroke:#181818;stroke-width:1.0;"/></g><!--link IBadge to BadgePort--><g id="link_IBadge_BadgePort"><path d="M1029.26,328.461 C1066.51,346.418 1204.97,413.153 1235.86,428.042 " fill="none" id="IBadge-BadgePort" style="stroke:#181818;stroke-width:1.0;"/></g><!--link BadgePort to Badge Service--><g id="link_BadgePort_Badge Service"><path d="M1242,438.161 C1242,452.271 1242,492.133 1242,517.598 " fill="none" id="BadgePort-Badge Service" style="stroke:#181818;stroke-width:1.0;"/></g><!--link Badge Service to Badge DB--><g id="link_Badge Service_Badge DB"><path d="M1242,564.195 C1242,585.425 1242,617.241 1242,638.303 " fill="none" id="Badge Service-Badge DB" style="stroke:#181818;stroke-width:1.0;"/></g><!--link NotificationPortIn to Notification Queue--><g id="link_NotificationPortIn_Notification Queue"><path d="M130.022,864.215 C147.288,879.169 197.302,922.485 221.943,943.825 " fill="none" id="NotificationPortIn-Notification Queue" style="stroke:#181818;stroke-width:1.0;"/></g><!--link Notification Queue to Notification Service--><g id="link_Notification Queue_Notification Service"><path d="M223.955,970.16 C206.718,987.561 174.716,1019.8673 153.139,1041.6497 " fill="none" id="Notification Queue-Notification Service" style="stroke:#181818;stroke-width:1.0;"/></g><!--link Notification Service to Notification DB--><g id="link_Notification Service_Notification DB"><path d="M222.023,1065 C233.609,1065 245.195,1065 256.781,1065 " fill="none" id="Notification Service-Notification DB" style="stroke:#181818;stroke-width:1.0;"/></g><!--link Notification Service to NotificationPortOut--><g id="link_Notification Service_NotificationPortOut"><path d="M87.1748,1041.8935 C63.1707,1029.7852 35.9485,1016.0537 24.0754,1010.065 " fill="none" id="Notification Service-NotificationPortOut" style="stroke:#181818;stroke-width:1.0;"/></g><!--reverse link HTTP to NotificationPortOut--><g id="link_HTTP_NotificationPortOut"><path d="M562.5603,15.938 C488.1893,20.508 6,52.45 6,112 C6,112 6,112 6,914 C6,946.827 13.7703,985.748 16.8055,999.699 " fill="none" id="HTTP-backto-NotificationPortOut" style="stroke:#181818;stroke-width:1.0;"/><polygon fill="#181818" points="568.549,15.57,559.3206,12.1295,563.5584,15.8767,559.8113,20.1145,568.549,15.57" style="stroke:#181818;stroke-width:1.0;"/></g><!--link API Gateway to INotification--><g id="link_API Gateway_INotification"><path d="M513.273,234.346 C377.837,246.404 77,278.127 77,322 C77,322 77,322 77,603 C77,655.222 107.139,712.941 119.147,733.866 " fill="none" id="API Gateway-INotification" style="stroke:#181818;stroke-width:1.0;"/></g><!--link PlatformPortOut to INotification--><g id="link_PlatformPortOut_INotification"><path d="M206.734,608.279 C193.663,629.405 145.068,707.948 129.112,733.737 " fill="none" id="PlatformPortOut-INotification" style="stroke:#181818;stroke-width:1.0;"/></g><!--link INotification to NotificationPortIn--><g id="link_INotification_NotificationPortIn"><path d="M124,752.127 C124,773.988 124,833.619 124,851.72 " fill="none" id="INotification-NotificationPortIn" style="stroke:#181818;stroke-width:1.0;"/></g><!--link IPlatform to ISat--><!--link ISat to IUser--><!--link IBuild to IBadge--><!--SRC=[ZPHDRzim38Rl-XM4hqM0hCUY692sm9PBcy4fTiXyK6Db4v1AdIrt28Rzz-d3bYbQJfe0YKK-eaYQUgKoeZdmlO2ls-s6CHdNnNCh6bWFwm9u2sjdOsolNz-q4if0iTgiuGituWy_5NYpjOSTlVDZaSV07ldBm7xUT6EaWkBs-MgvN2q_UzxvDzQnLf7HdPc1dZhZAPItZr-AvbtQ1BopveQ_y7P8x-6kOFzigKVTrJuHl5d9Tz6qqfoWB9_WquV9Qq8cx7VnOa41zm-F7aCDsnovEUZcbJPjiAF6HVHCymRcOWCnc6bYF6kcaT7VDnDLzAYDFCWzDr8hMXNseSgIBMUgmzp52YayLFcx4nrDyvkp5RG92JBJY8IPDkEErpy5xO8tel83TAPk3xWQQ8PXvqngmPd9gPF76hYgOIjQCqdEUR4E43mUXaEMnZPW3ol5ZwTMjZHcoGsEIEaOCdVHIgruS-yShWmdPR1OZE8pF3ZZ3abMDQ3MZAvVnLX2UI0ebFzrOP00ZOy-FfQMYgLBM2IYD77kUksf6C92LA8v5udhJ1L8CUAJCnD1I9SkBNhJRLqJ4omcUf65TaWMiZcwGN0_lggPCR09p7d2jZWGsIF2_8O_p-VdDx_NNypmvmpZlOjFhiharjbqqtKujBzxzfYfQBaOK_cnWJ967oqdH1J7hu68qXaq9vB-ujpcVPcc9PfEncGA92ldpcWwdk1czqlMjL1LFpvm0p_C-CLe7L4ozN5FFtj9J7yjST0uEmaMNkZ8_GS0]--></g></svg>