<?xml version="1.0" encoding="us-ascii" standalone="no"?><svg xmlns="http://www.w3.org/2000/svg" xmlns:xlink="http://www.w3.org/1999/xlink" contentStyleType="text/css" height="192px" preserveAspectRatio="none" style="width:417px;height:192px;background:#FFFFFF;" version="1.1" viewBox="0 0 417 192" width="417px" zoomAndPan="magnify"><defs/><g><!--entity C--><g id="elem_C"><rect fill="#F1F1F1" height="46.2969" rx="2.5" ry="2.5" style="stroke:#181818;stroke-width:0.5;" width="181" x="7" y="7"/><rect fill="#F1F1F1" height="10" style="stroke:#181818;stroke-width:0.5;" width="15" x="168" y="12"/><rect fill="#F1F1F1" height="2" style="stroke:#181818;stroke-width:0.5;" width="4" x="166" y="14"/><rect fill="#F1F1F1" height="2" style="stroke:#181818;stroke-width:0.5;" width="4" x="166" y="18"/><text fill="#000000" font-family="sans-serif" font-size="14" lengthAdjust="spacing" textLength="141" x="22" y="39.9951">Noti&#64257;cation Service</text></g><!--entity ndb--><g id="elem_ndb"><path d="M34.5,140 C34.5,130 97.5,130 97.5,130 C97.5,130 160.5,130 160.5,140 L160.5,165.2969 C160.5,175.2969 97.5,175.2969 97.5,175.2969 C97.5,175.2969 34.5,175.2969 34.5,165.2969 L34.5,140 " fill="#F1F1F1" style="stroke:#181818;stroke-width:0.5;"/><path d="M34.5,140 C34.5,150 97.5,150 97.5,150 C97.5,150 160.5,150 160.5,140 " fill="none" style="stroke:#181818;stroke-width:0.5;"/><text fill="#000000" font-family="sans-serif" font-size="14" lengthAdjust="spacing" textLength="106" x="44.5" y="166.9951">NotificationDB</text></g><!--entity RabbitMQ--><g id="elem_RabbitMQ"><rect fill="#F1F1F1" height="46.2969" rx="2.5" ry="2.5" style="stroke:#181818;stroke-width:0.5;" width="112" x="299.5" y="7"/><rect fill="#F1F1F1" height="10" style="stroke:#181818;stroke-width:0.5;" width="15" x="391.5" y="12"/><rect fill="#F1F1F1" height="2" style="stroke:#181818;stroke-width:0.5;" width="4" x="389.5" y="14"/><rect fill="#F1F1F1" height="2" style="stroke:#181818;stroke-width:0.5;" width="4" x="389.5" y="18"/><text fill="#000000" font-family="sans-serif" font-size="14" lengthAdjust="spacing" textLength="72" x="314.5" y="39.9951">RabbitMQ</text></g><!--link C to RabbitMQ--><g id="link_C_RabbitMQ"><path d="M188.098,30 C225.123,30 260.792,30 293.295,30 " fill="none" id="C-to-RabbitMQ" style="stroke:#181818;stroke-width:1.0;"/><polygon fill="#181818" points="299.295,30,290.295,26,294.295,30,290.295,34,299.295,30" style="stroke:#181818;stroke-width:1.0;"/><text fill="#000000" font-family="sans-serif" font-size="13" lengthAdjust="spacing" textLength="75" x="206.25" y="23.0669">depends on</text></g><!--link C to ndb--><g id="link_C_ndb"><path d="M97.5,53.102 C97.5,74.98 97.5,102.258 97.5,123.944 " fill="none" id="C-to-ndb" style="stroke:#181818;stroke-width:1.0;stroke-dasharray:7.0,7.0;"/><polygon fill="#181818" points="97.5,129.944,101.5,120.944,97.5,124.944,93.5,120.944,97.5,129.944" style="stroke:#181818;stroke-width:1.0;"/><text fill="#000000" font-family="sans-serif" font-size="13" lengthAdjust="spacing" textLength="30" x="98.5" y="96.0669">uses</text></g><!--SRC=[Y_RBBybylwOnER4aCpzF8JYrg2mpEJLM8R5OmPah9R4aCIcnE5K1f2Wj4wB6nGaacPUInCNbh6kd41sKc9IKMU8R6AjWfP2IMf2QbrAia9y7b5JGIyalpzEp0wa5ofKMfnO30000]--></g></svg>