<?xml version="1.0" encoding="us-ascii" standalone="no"?><svg xmlns="http://www.w3.org/2000/svg" xmlns:xlink="http://www.w3.org/1999/xlink" contentStyleType="text/css" height="192px" preserveAspectRatio="none" style="width:397px;height:192px;background:#FFFFFF;" version="1.1" viewBox="0 0 397 192" width="397px" zoomAndPan="magnify"><defs/><g><!--entity C--><g id="elem_C"><rect fill="#F1F1F1" height="46.2969" rx="2.5" ry="2.5" style="stroke:#181818;stroke-width:0.5;" width="160" x="7" y="7"/><rect fill="#F1F1F1" height="10" style="stroke:#181818;stroke-width:0.5;" width="15" x="147" y="12"/><rect fill="#F1F1F1" height="2" style="stroke:#181818;stroke-width:0.5;" width="4" x="145" y="14"/><rect fill="#F1F1F1" height="2" style="stroke:#181818;stroke-width:0.5;" width="4" x="145" y="18"/><text fill="#000000" font-family="sans-serif" font-size="14" lengthAdjust="spacing" textLength="120" x="22" y="39.9951">Platform Service</text></g><!--entity pdb--><g id="elem_pdb"><path d="M35,140 C35,130 87,130 87,130 C87,130 139,130 139,140 L139,165.2969 C139,175.2969 87,175.2969 87,175.2969 C87,175.2969 35,175.2969 35,165.2969 L35,140 " fill="#F1F1F1" style="stroke:#181818;stroke-width:0.5;"/><path d="M35,140 C35,150 87,150 87,150 C87,150 139,150 139,140 " fill="none" style="stroke:#181818;stroke-width:0.5;"/><text fill="#000000" font-family="sans-serif" font-size="14" lengthAdjust="spacing" textLength="84" x="45" y="166.9951">PlatformDB</text></g><!--entity RabbitMQ--><g id="elem_RabbitMQ"><rect fill="#F1F1F1" height="46.2969" rx="2.5" ry="2.5" style="stroke:#181818;stroke-width:0.5;" width="112" x="279" y="7"/><rect fill="#F1F1F1" height="10" style="stroke:#181818;stroke-width:0.5;" width="15" x="371" y="12"/><rect fill="#F1F1F1" height="2" style="stroke:#181818;stroke-width:0.5;" width="4" x="369" y="14"/><rect fill="#F1F1F1" height="2" style="stroke:#181818;stroke-width:0.5;" width="4" x="369" y="18"/><text fill="#000000" font-family="sans-serif" font-size="14" lengthAdjust="spacing" textLength="72" x="294" y="39.9951">RabbitMQ</text></g><!--link C to RabbitMQ--><g id="link_C_RabbitMQ"><path d="M167.176,30 C203.546,30 239.688,30 272.644,30 " fill="none" id="C-to-RabbitMQ" style="stroke:#181818;stroke-width:1.0;"/><polygon fill="#181818" points="278.644,30,269.644,26,273.644,30,269.644,34,278.644,30" style="stroke:#181818;stroke-width:1.0;"/><text fill="#000000" font-family="sans-serif" font-size="13" lengthAdjust="spacing" textLength="75" x="185.5" y="23.0669">depends on</text></g><!--link C to pdb--><g id="link_C_pdb"><path d="M87,53.102 C87,74.98 87,102.258 87,123.944 " fill="none" id="C-to-pdb" style="stroke:#181818;stroke-width:1.0;stroke-dasharray:7.0,7.0;"/><polygon fill="#181818" points="87,129.944,91,120.944,87,124.944,83,120.944,87,129.944" style="stroke:#181818;stroke-width:1.0;"/><text fill="#000000" font-family="sans-serif" font-size="13" lengthAdjust="spacing" textLength="30" x="88" y="96.0669">uses</text></g><!--SRC=[Ymx8IIn9oo_ALGXEBIhBJ4wDLKWiLd3cIaaiIKnAB4vLWCcxE84a2bAIkBYSTUqKeeCIav8oItm3OnMi559I2rBpKeeLylEuWC1PGIyblpnFpmwa6YXRMfnQ3000]--></g></svg>