<?xml version="1.0" encoding="us-ascii" standalone="no"?><svg xmlns="http://www.w3.org/2000/svg" xmlns:xlink="http://www.w3.org/1999/xlink" contentStyleType="text/css" height="59px" preserveAspectRatio="none" style="width:521px;height:59px;background:#FFFFFF;" version="1.1" viewBox="0 0 521 59" width="521px" zoomAndPan="magnify"><defs/><g><!--entity C--><g id="elem_C"><rect fill="#F1F1F1" height="46.2969" rx="2.5" ry="2.5" style="stroke:#181818;stroke-width:0.5;" width="201" x="7" y="7"/><rect fill="#F1F1F1" height="10" style="stroke:#181818;stroke-width:0.5;" width="15" x="188" y="12"/><rect fill="#F1F1F1" height="2" style="stroke:#181818;stroke-width:0.5;" width="4" x="186" y="14"/><rect fill="#F1F1F1" height="2" style="stroke:#181818;stroke-width:0.5;" width="4" x="186" y="18"/><text fill="#000000" font-family="sans-serif" font-size="14" lengthAdjust="spacing" textLength="161" x="22" y="39.9951">Static Analysis Service</text></g><!--entity SonarCloud (external)--><g id="elem_SonarCloud (external)"><rect fill="#F1F1F1" height="46.2969" rx="2.5" ry="2.5" style="stroke:#181818;stroke-width:0.5;" width="195" x="320" y="7"/><rect fill="#F1F1F1" height="10" style="stroke:#181818;stroke-width:0.5;" width="15" x="495" y="12"/><rect fill="#F1F1F1" height="2" style="stroke:#181818;stroke-width:0.5;" width="4" x="493" y="14"/><rect fill="#F1F1F1" height="2" style="stroke:#181818;stroke-width:0.5;" width="4" x="493" y="18"/><text fill="#000000" font-family="sans-serif" font-size="14" lengthAdjust="spacing" textLength="155" x="335" y="39.9951">SonarCloud (external)</text></g><!--link C to SonarCloud (external)--><g id="link_C_SonarCloud (external)"><path d="M208.148,30 C244.037,30 278.377,30 313.997,30 " fill="none" id="C-to-SonarCloud (external)" style="stroke:#181818;stroke-width:1.0;"/><polygon fill="#181818" points="319.997,30,310.997,26,314.997,30,310.997,34,319.997,30" style="stroke:#181818;stroke-width:1.0;"/><text fill="#000000" font-family="sans-serif" font-size="13" lengthAdjust="spacing" textLength="75" x="226.5" y="23.0669">depends on</text></g><!--SRC=[YmukIIp9J5Pmp4lCgIpEB5O8JYqgoqnEZLL8B5Pmvk9orhLJY0xEpqiiSix9BqrHq4YjA4aj0YhMZ5MmKaX9BKZDIobMoCy30000]--></g></svg>