<?xml version="1.0" encoding="us-ascii" standalone="no"?><svg xmlns="http://www.w3.org/2000/svg" xmlns:xlink="http://www.w3.org/1999/xlink" contentStyleType="text/css" height="996px" preserveAspectRatio="none" style="width:929px;height:996px;background:#FFFFFF;" version="1.1" viewBox="0 0 929 996" width="929px" zoomAndPan="magnify"><defs/><g><text fill="#000000" font-family="sans-serif" font-size="14" font-weight="bold" lengthAdjust="spacing" textLength="460" x="235.75" y="27.9951">UC7 - Student pushes and triggers automatic evaluation</text><rect fill="#FFFFFF" height="29.1328" style="stroke:#181818;stroke-width:1.0;" width="10" x="32" y="149.7266"/><rect fill="#FFFFFF" height="29.1328" style="stroke:#181818;stroke-width:1.0;" width="10" x="349" y="149.7266"/><rect fill="#FFFFFF" height="29.1328" style="stroke:#181818;stroke-width:1.0;" width="10" x="349" y="266.2578"/><rect fill="#FFFFFF" height="400.1953" style="stroke:#FFFFFF;stroke-width:1.0;" width="10" x="528" y="207.9922"/><line style="stroke:#181818;stroke-width:1.0;" x1="528" x2="528" y1="207.9922" y2="608.1875"/><line style="stroke:#181818;stroke-width:1.0;" x1="538" x2="538" y1="207.9922" y2="608.1875"/><line style="stroke:#181818;stroke-width:1.0;" x1="528" x2="538" y1="207.9922" y2="207.9922"/><rect fill="#FFFFFF" height="254.7969" style="stroke:#FFFFFF;stroke-width:1.0;" width="10" x="528" y="636.1875"/><line style="stroke:#181818;stroke-width:1.0;" x1="528" x2="528" y1="636.1875" y2="890.9844"/><line style="stroke:#181818;stroke-width:1.0;" x1="538" x2="538" y1="636.1875" y2="890.9844"/><line style="stroke:#181818;stroke-width:1.0;" x1="528" x2="538" y1="890.9844" y2="890.9844"/><rect fill="#FFFFFF" height="28" style="stroke:#181818;stroke-width:1.0;" width="10" x="533" y="332.5234"/><rect fill="#FFFFFF" height="28" style="stroke:#181818;stroke-width:1.0;" width="10" x="533" y="452.9219"/><rect fill="#FFFFFF" height="28" style="stroke:#181818;stroke-width:1.0;" width="10" x="533" y="534.0547"/><rect fill="#FFFFFF" height="28" style="stroke:#181818;stroke-width:1.0;" width="10" x="533" y="701.4531"/><rect fill="#FFFFFF" height="28" style="stroke:#181818;stroke-width:1.0;" width="10" x="533" y="773.5859"/><rect fill="#FFFFFF" height="8" style="stroke:#FFFFFF;stroke-width:1.0;" width="10" x="839" y="600.1875"/><line style="stroke:#181818;stroke-width:1.0;" x1="839" x2="839" y1="600.1875" y2="608.1875"/><line style="stroke:#181818;stroke-width:1.0;" x1="849" x2="849" y1="600.1875" y2="608.1875"/><line style="stroke:#181818;stroke-width:1.0;" x1="839" x2="849" y1="600.1875" y2="600.1875"/><rect fill="#FFFFFF" height="21.1328" style="stroke:#FFFFFF;stroke-width:1.0;" width="10" x="839" y="636.1875"/><line style="stroke:#181818;stroke-width:1.0;" x1="839" x2="839" y1="636.1875" y2="657.3203"/><line style="stroke:#181818;stroke-width:1.0;" x1="849" x2="849" y1="636.1875" y2="657.3203"/><line style="stroke:#181818;stroke-width:1.0;" x1="839" x2="849" y1="657.3203" y2="657.3203"/><rect fill="none" height="282.7969" style="stroke:#000000;stroke-width:1.5;" width="443.5" x="479" y="382.5234"/><rect fill="none" height="89.2656" style="stroke:#000000;stroke-width:1.5;" width="232" x="489" y="406.6563"/><rect fill="none" height="46.2656" style="stroke:#000000;stroke-width:1.5;" width="508" x="69" y="852.7188"/><line style="stroke:#181818;stroke-width:0.5;stroke-dasharray:5.0,5.0;" x1="37" x2="37" y1="118.5938" y2="608.1875"/><line style="stroke:#A80036;stroke-width:1.0;stroke-dasharray:1.0,4.0;" x1="37" x2="37" y1="608.1875" y2="636.1875"/><line style="stroke:#181818;stroke-width:0.5;stroke-dasharray:5.0,5.0;" x1="37" x2="37" y1="636.1875" y2="915.9844"/><line style="stroke:#181818;stroke-width:0.5;stroke-dasharray:5.0,5.0;" x1="197" x2="197" y1="118.5938" y2="608.1875"/><line style="stroke:#A80036;stroke-width:1.0;stroke-dasharray:1.0,4.0;" x1="197" x2="197" y1="608.1875" y2="636.1875"/><line style="stroke:#181818;stroke-width:0.5;stroke-dasharray:5.0,5.0;" x1="197" x2="197" y1="636.1875" y2="915.9844"/><line style="stroke:#181818;stroke-width:0.5;stroke-dasharray:5.0,5.0;" x1="354" x2="354" y1="118.5938" y2="608.1875"/><line style="stroke:#A80036;stroke-width:1.0;stroke-dasharray:1.0,4.0;" x1="354" x2="354" y1="608.1875" y2="636.1875"/><line style="stroke:#181818;stroke-width:0.5;stroke-dasharray:5.0,5.0;" x1="354" x2="354" y1="636.1875" y2="915.9844"/><line style="stroke:#181818;stroke-width:0.5;stroke-dasharray:5.0,5.0;" x1="533" x2="533" y1="118.5938" y2="608.1875"/><line style="stroke:#A80036;stroke-width:1.0;stroke-dasharray:1.0,4.0;" x1="533" x2="533" y1="608.1875" y2="636.1875"/><line style="stroke:#181818;stroke-width:0.5;stroke-dasharray:5.0,5.0;" x1="533" x2="533" y1="636.1875" y2="915.9844"/><line style="stroke:#181818;stroke-width:0.5;stroke-dasharray:5.0,5.0;" x1="843.5" x2="843.5" y1="118.5938" y2="608.1875"/><line style="stroke:#A80036;stroke-width:1.0;stroke-dasharray:1.0,4.0;" x1="843.5" x2="843.5" y1="608.1875" y2="636.1875"/><line style="stroke:#181818;stroke-width:0.5;stroke-dasharray:5.0,5.0;" x1="843.5" x2="843.5" y1="636.1875" y2="915.9844"/><text fill="#000000" font-family="sans-serif" font-size="14" lengthAdjust="spacing" textLength="58" x="5" y="115.292">Student</text><ellipse cx="37" cy="50.7969" fill="#E2E2F0" rx="8" ry="8" style="stroke:#181818;stroke-width:0.5;"/><path d="M37,58.7969 L37,85.7969 M24,66.7969 L50,66.7969 M37,85.7969 L24,100.7969 M37,85.7969 L50,100.7969 " fill="none" style="stroke:#181818;stroke-width:0.5;"/><text fill="#000000" font-family="sans-serif" font-size="14" lengthAdjust="spacing" textLength="58" x="5" y="927.9795">Student</text><ellipse cx="37" cy="939.7813" fill="#E2E2F0" rx="8" ry="8" style="stroke:#181818;stroke-width:0.5;"/><path d="M37,947.7813 L37,974.7813 M24,955.7813 L50,955.7813 M37,974.7813 L24,989.7813 M37,974.7813 L50,989.7813 " fill="none" style="stroke:#181818;stroke-width:0.5;"/><text fill="#000000" font-family="sans-serif" font-size="14" lengthAdjust="spacing" textLength="231" x="79" y="115.292">OtherStudentsOfTheSameTeam</text><ellipse cx="197.5" cy="50.7969" fill="#E2E2F0" rx="8" ry="8" style="stroke:#181818;stroke-width:0.5;"/><path d="M197.5,58.7969 L197.5,85.7969 M184.5,66.7969 L210.5,66.7969 M197.5,85.7969 L184.5,100.7969 M197.5,85.7969 L210.5,100.7969 " fill="none" style="stroke:#181818;stroke-width:0.5;"/><text fill="#000000" font-family="sans-serif" font-size="14" lengthAdjust="spacing" textLength="231" x="79" y="927.9795">OtherStudentsOfTheSameTeam</text><ellipse cx="197.5" cy="939.7813" fill="#E2E2F0" rx="8" ry="8" style="stroke:#181818;stroke-width:0.5;"/><path d="M197.5,947.7813 L197.5,974.7813 M184.5,955.7813 L210.5,955.7813 M197.5,974.7813 L184.5,989.7813 M197.5,974.7813 L210.5,989.7813 " fill="none" style="stroke:#181818;stroke-width:0.5;"/><text fill="#000000" font-family="sans-serif" font-size="14" lengthAdjust="spacing" textLength="50" x="326" y="115.292">GitHub</text><ellipse cx="354" cy="50.7969" fill="#E2E2F0" rx="8" ry="8" style="stroke:#181818;stroke-width:0.5;"/><path d="M354,58.7969 L354,85.7969 M341,66.7969 L367,66.7969 M354,85.7969 L341,100.7969 M354,85.7969 L367,100.7969 " fill="none" style="stroke:#181818;stroke-width:0.5;"/><text fill="#000000" font-family="sans-serif" font-size="14" lengthAdjust="spacing" textLength="50" x="326" y="927.9795">GitHub</text><ellipse cx="354" cy="939.7813" fill="#E2E2F0" rx="8" ry="8" style="stroke:#181818;stroke-width:0.5;"/><path d="M354,947.7813 L354,974.7813 M341,955.7813 L367,955.7813 M354,974.7813 L341,989.7813 M354,974.7813 L367,989.7813 " fill="none" style="stroke:#181818;stroke-width:0.5;"/><rect fill="#E2E2F0" height="30.2969" rx="2.5" ry="2.5" style="stroke:#181818;stroke-width:0.5;" width="68" x="499" y="87.2969"/><text fill="#000000" font-family="sans-serif" font-size="14" lengthAdjust="spacing" textLength="54" x="506" y="107.292">System</text><rect fill="#E2E2F0" height="30.2969" rx="2.5" ry="2.5" style="stroke:#181818;stroke-width:0.5;" width="68" x="499" y="914.9844"/><text fill="#000000" font-family="sans-serif" font-size="14" lengthAdjust="spacing" textLength="54" x="506" y="934.9795">System</text><text fill="#000000" font-family="sans-serif" font-size="14" lengthAdjust="spacing" textLength="131" x="775.5" y="115.292">StaticAnalysisTool</text><ellipse cx="844" cy="50.7969" fill="#E2E2F0" rx="8" ry="8" style="stroke:#181818;stroke-width:0.5;"/><path d="M844,58.7969 L844,85.7969 M831,66.7969 L857,66.7969 M844,85.7969 L831,100.7969 M844,85.7969 L857,100.7969 " fill="none" style="stroke:#181818;stroke-width:0.5;"/><text fill="#000000" font-family="sans-serif" font-size="14" lengthAdjust="spacing" textLength="131" x="775.5" y="927.9795">StaticAnalysisTool</text><ellipse cx="844" cy="939.7813" fill="#E2E2F0" rx="8" ry="8" style="stroke:#181818;stroke-width:0.5;"/><path d="M844,947.7813 L844,974.7813 M831,955.7813 L857,955.7813 M844,974.7813 L831,989.7813 M844,974.7813 L857,989.7813 " fill="none" style="stroke:#181818;stroke-width:0.5;"/><rect fill="#FFFFFF" height="29.1328" style="stroke:#181818;stroke-width:1.0;" width="10" x="32" y="149.7266"/><rect fill="#FFFFFF" height="29.1328" style="stroke:#181818;stroke-width:1.0;" width="10" x="349" y="149.7266"/><rect fill="#FFFFFF" height="29.1328" style="stroke:#181818;stroke-width:1.0;" width="10" x="349" y="266.2578"/><rect fill="#FFFFFF" height="400.1953" style="stroke:#FFFFFF;stroke-width:1.0;" width="10" x="528" y="207.9922"/><line style="stroke:#181818;stroke-width:1.0;" x1="528" x2="528" y1="207.9922" y2="608.1875"/><line style="stroke:#181818;stroke-width:1.0;" x1="538" x2="538" y1="207.9922" y2="608.1875"/><line style="stroke:#181818;stroke-width:1.0;" x1="528" x2="538" y1="207.9922" y2="207.9922"/><rect fill="#FFFFFF" height="254.7969" style="stroke:#FFFFFF;stroke-width:1.0;" width="10" x="528" y="636.1875"/><line style="stroke:#181818;stroke-width:1.0;" x1="528" x2="528" y1="636.1875" y2="890.9844"/><line style="stroke:#181818;stroke-width:1.0;" x1="538" x2="538" y1="636.1875" y2="890.9844"/><line style="stroke:#181818;stroke-width:1.0;" x1="528" x2="538" y1="890.9844" y2="890.9844"/><rect fill="#FFFFFF" height="28" style="stroke:#181818;stroke-width:1.0;" width="10" x="533" y="332.5234"/><rect fill="#FFFFFF" height="28" style="stroke:#181818;stroke-width:1.0;" width="10" x="533" y="452.9219"/><rect fill="#FFFFFF" height="28" style="stroke:#181818;stroke-width:1.0;" width="10" x="533" y="534.0547"/><rect fill="#FFFFFF" height="28" style="stroke:#181818;stroke-width:1.0;" width="10" x="533" y="701.4531"/><rect fill="#FFFFFF" height="28" style="stroke:#181818;stroke-width:1.0;" width="10" x="533" y="773.5859"/><rect fill="#FFFFFF" height="8" style="stroke:#FFFFFF;stroke-width:1.0;" width="10" x="839" y="600.1875"/><line style="stroke:#181818;stroke-width:1.0;" x1="839" x2="839" y1="600.1875" y2="608.1875"/><line style="stroke:#181818;stroke-width:1.0;" x1="849" x2="849" y1="600.1875" y2="608.1875"/><line style="stroke:#181818;stroke-width:1.0;" x1="839" x2="849" y1="600.1875" y2="600.1875"/><rect fill="#FFFFFF" height="21.1328" style="stroke:#FFFFFF;stroke-width:1.0;" width="10" x="839" y="636.1875"/><line style="stroke:#181818;stroke-width:1.0;" x1="839" x2="839" y1="636.1875" y2="657.3203"/><line style="stroke:#181818;stroke-width:1.0;" x1="849" x2="849" y1="636.1875" y2="657.3203"/><line style="stroke:#181818;stroke-width:1.0;" x1="839" x2="849" y1="657.3203" y2="657.3203"/><polygon fill="#181818" points="337,145.7266,347,149.7266,337,153.7266,341,149.7266" style="stroke:#181818;stroke-width:1.0;"/><line style="stroke:#181818;stroke-width:1.0;" x1="42" x2="343" y1="149.7266" y2="149.7266"/><text fill="#000000" font-family="sans-serif" font-size="13" lengthAdjust="spacing" textLength="100" x="49" y="144.6606">push(repo,files)</text><polygon fill="#181818" points="48,174.8594,38,178.8594,48,182.8594,44,178.8594" style="stroke:#181818;stroke-width:1.0;"/><line style="stroke:#181818;stroke-width:1.0;stroke-dasharray:2.0,2.0;" x1="42" x2="353" y1="178.8594" y2="178.8594"/><text fill="#000000" font-family="sans-serif" font-size="13" lengthAdjust="spacing" textLength="47" x="54" y="173.7935">pushed</text><polygon fill="#181818" points="516,203.9922,526,207.9922,516,211.9922,520,207.9922" style="stroke:#181818;stroke-width:1.0;"/><line style="stroke:#181818;stroke-width:1.0;" x1="354" x2="522" y1="207.9922" y2="207.9922"/><text fill="#000000" font-family="sans-serif" font-size="13" lengthAdjust="spacing" textLength="155" x="361" y="202.9263">notifyNewCommit(repo)</text><polygon fill="#181818" points="365,233.125,355,237.125,365,241.125,361,237.125" style="stroke:#181818;stroke-width:1.0;"/><line style="stroke:#181818;stroke-width:1.0;stroke-dasharray:2.0,2.0;" x1="359" x2="527" y1="237.125" y2="237.125"/><text fill="#000000" font-family="sans-serif" font-size="13" lengthAdjust="spacing" textLength="55" x="371" y="232.0591">received</text><polygon fill="#181818" points="370,262.2578,360,266.2578,370,270.2578,366,266.2578" style="stroke:#181818;stroke-width:1.0;"/><line style="stroke:#181818;stroke-width:1.0;" x1="364" x2="527" y1="266.2578" y2="266.2578"/><text fill="#000000" font-family="sans-serif" font-size="13" lengthAdjust="spacing" textLength="61" x="376" y="261.1919">pull(repo)</text><polygon fill="#181818" points="516,291.3906,526,295.3906,516,299.3906,520,295.3906" style="stroke:#181818;stroke-width:1.0;"/><line style="stroke:#181818;stroke-width:1.0;stroke-dasharray:2.0,2.0;" x1="354" x2="522" y1="295.3906" y2="295.3906"/><text fill="#000000" font-family="sans-serif" font-size="13" lengthAdjust="spacing" textLength="122" x="361" y="290.3247">last commited files</text><line style="stroke:#181818;stroke-width:1.0;" x1="543" x2="585" y1="324.5234" y2="324.5234"/><line style="stroke:#181818;stroke-width:1.0;" x1="585" x2="585" y1="324.5234" y2="337.5234"/><line style="stroke:#181818;stroke-width:1.0;" x1="544" x2="585" y1="337.5234" y2="337.5234"/><polygon fill="#181818" points="554,333.5234,544,337.5234,554,341.5234,550,337.5234" style="stroke:#181818;stroke-width:1.0;"/><text fill="#000000" font-family="sans-serif" font-size="13" lengthAdjust="spacing" textLength="84" x="550" y="319.4575">buildProject()</text><path d="M479,382.5234 L549,382.5234 L549,389.6563 L539,399.6563 L479,399.6563 L479,382.5234 " fill="#EEEEEE" style="stroke:#000000;stroke-width:1.5;"/><rect fill="none" height="282.7969" style="stroke:#000000;stroke-width:1.5;" width="443.5" x="479" y="382.5234"/><text fill="#000000" font-family="sans-serif" font-size="13" font-weight="bold" lengthAdjust="spacing" textLength="25" x="494" y="395.5903">par</text><path d="M489,406.6563 L567,406.6563 L567,413.7891 L557,423.7891 L489,423.7891 L489,406.6563 " fill="#EEEEEE" style="stroke:#000000;stroke-width:1.5;"/><rect fill="none" height="89.2656" style="stroke:#000000;stroke-width:1.5;" width="232" x="489" y="406.6563"/><text fill="#000000" font-family="sans-serif" font-size="13" font-weight="bold" lengthAdjust="spacing" textLength="33" x="504" y="419.7231">loop</text><text fill="#000000" font-family="sans-serif" font-size="11" font-weight="bold" lengthAdjust="spacing" textLength="134" x="582" y="418.8667">[for each test case]</text><line style="stroke:#181818;stroke-width:1.0;" x1="543" x2="585" y1="444.9219" y2="444.9219"/><line style="stroke:#181818;stroke-width:1.0;" x1="585" x2="585" y1="444.9219" y2="457.9219"/><line style="stroke:#181818;stroke-width:1.0;" x1="544" x2="585" y1="457.9219" y2="457.9219"/><polygon fill="#181818" points="554,453.9219,544,457.9219,554,461.9219,550,457.9219" style="stroke:#181818;stroke-width:1.0;"/><text fill="#000000" font-family="sans-serif" font-size="13" lengthAdjust="spacing" textLength="125" x="550" y="439.856">runTests(test, files)</text><line style="stroke:#000000;stroke-width:1.0;stroke-dasharray:2.0,2.0;" x1="479" x2="922.5" y1="503.9219" y2="503.9219"/><line style="stroke:#181818;stroke-width:1.0;" x1="543" x2="585" y1="526.0547" y2="526.0547"/><line style="stroke:#181818;stroke-width:1.0;" x1="585" x2="585" y1="526.0547" y2="539.0547"/><line style="stroke:#181818;stroke-width:1.0;" x1="544" x2="585" y1="539.0547" y2="539.0547"/><polygon fill="#181818" points="554,535.0547,544,539.0547,554,543.0547,550,539.0547" style="stroke:#181818;stroke-width:1.0;"/><text fill="#000000" font-family="sans-serif" font-size="13" lengthAdjust="spacing" textLength="224" x="550" y="520.9888">calculateElapsedDays(battle, repo)</text><line style="stroke:#000000;stroke-width:1.0;stroke-dasharray:2.0,2.0;" x1="479" x2="922.5" y1="578.0547" y2="578.0547"/><polygon fill="#181818" points="827,596.1875,837,600.1875,827,604.1875,831,600.1875" style="stroke:#181818;stroke-width:1.0;"/><line style="stroke:#181818;stroke-width:1.0;" x1="538" x2="833" y1="600.1875" y2="600.1875"/><text fill="#000000" font-family="sans-serif" font-size="13" lengthAdjust="spacing" textLength="238" x="545" y="595.1216">runStaticAnalysisTools(files, aspects)</text><polygon fill="#181818" points="549,653.3203,539,657.3203,549,661.3203,545,657.3203" style="stroke:#181818;stroke-width:1.0;"/><line style="stroke:#181818;stroke-width:1.0;stroke-dasharray:2.0,2.0;" x1="543" x2="843" y1="657.3203" y2="657.3203"/><text fill="#000000" font-family="sans-serif" font-size="13" lengthAdjust="spacing" textLength="57" x="555" y="652.2544">outcame</text><line style="stroke:#181818;stroke-width:1.0;" x1="543" x2="585" y1="693.4531" y2="693.4531"/><line style="stroke:#181818;stroke-width:1.0;" x1="585" x2="585" y1="693.4531" y2="706.4531"/><line style="stroke:#181818;stroke-width:1.0;" x1="544" x2="585" y1="706.4531" y2="706.4531"/><polygon fill="#181818" points="554,702.4531,544,706.4531,554,710.4531,550,706.4531" style="stroke:#181818;stroke-width:1.0;"/><text fill="#000000" font-family="sans-serif" font-size="13" lengthAdjust="spacing" textLength="103" x="550" y="688.3872">calculateScore()</text><line style="stroke:#181818;stroke-width:1.0;" x1="543" x2="585" y1="765.5859" y2="765.5859"/><line style="stroke:#181818;stroke-width:1.0;" x1="585" x2="585" y1="765.5859" y2="778.5859"/><line style="stroke:#181818;stroke-width:1.0;" x1="544" x2="585" y1="778.5859" y2="778.5859"/><polygon fill="#181818" points="554,774.5859,544,778.5859,554,782.5859,550,778.5859" style="stroke:#181818;stroke-width:1.0;"/><text fill="#000000" font-family="sans-serif" font-size="13" lengthAdjust="spacing" textLength="287" x="550" y="760.52">modifyBattleTeamScore(battle, team, score)</text><polygon fill="#181818" points="48,833.7188,38,837.7188,48,841.7188,44,837.7188" style="stroke:#181818;stroke-width:1.0;"/><line style="stroke:#181818;stroke-width:1.0;" x1="42" x2="527" y1="837.7188" y2="837.7188"/><text fill="#000000" font-family="sans-serif" font-size="13" lengthAdjust="spacing" textLength="47" x="54" y="832.6528">notify()</text><path d="M69,852.7188 L147,852.7188 L147,859.8516 L137,869.8516 L69,869.8516 L69,852.7188 " fill="#EEEEEE" style="stroke:#000000;stroke-width:1.5;"/><rect fill="none" height="46.2656" style="stroke:#000000;stroke-width:1.5;" width="508" x="69" y="852.7188"/><text fill="#000000" font-family="sans-serif" font-size="13" font-weight="bold" lengthAdjust="spacing" textLength="33" x="84" y="865.7856">loop</text><text fill="#000000" font-family="sans-serif" font-size="11" font-weight="bold" lengthAdjust="spacing" textLength="248" x="162" y="864.9292">[for each other student in the team]</text><polygon fill="#181818" points="208.5,886.9844,198.5,890.9844,208.5,894.9844,204.5,890.9844" style="stroke:#181818;stroke-width:1.0;"/><line style="stroke:#181818;stroke-width:1.0;" x1="202.5" x2="532" y1="890.9844" y2="890.9844"/><text fill="#000000" font-family="sans-serif" font-size="13" lengthAdjust="spacing" textLength="47" x="214.5" y="885.9185">notify()</text><!--SRC=[XLD1Rjim4Bpp5NkK4SdN03u4IDEWFIK1x3vWJQrZ1fGea4i7_dsN5AN8SOtg998pipFB9Hks17-Uxg61BSUMUeOXXYC5mBu5zkRzdRmi8hiEsMYW4zeeVwvNgDdvYLPMhtmaNxR2ws5tf2rsj2Fi2k2NuTznhmRqecO6b8BRSs3gPhbKvh57Umucx9opIatEceT2Xxixs6IZbQV1rGTZAQoIWZaXq-ofe1iXpXhDIAHMjNH5K3FbeTWQI_MEpU7yGfzFhkiCvwehCJP2cYzZ6_2aoPn4VZxzxjhQmb_QcvGsO34mw5o7MiZHbbgphOJTHsFRD-y-I7CbXgIjIbdd1ZX8BoNV4PYI70PI8DyD7H_xdU12bT0rb7vIBod82lLMVOrMHoiTVBOu16f_uZbKUsIPgXh6a9c_e5_ThqXb0zSdeSf6Qi0mI41nj5wlrJyKBZeeFNQHjOoT6XFyp_jMEq_LwYQmSwrS_e-SAatoY9zIikpK4DBUfSGuKjFiYFxblRZqKY2KiJGzo3gBVRkdsozg8Pqeot4UNvIa_mi0]--></g></svg>