<?xml version="1.0" encoding="us-ascii" standalone="no"?><svg xmlns="http://www.w3.org/2000/svg" xmlns:xlink="http://www.w3.org/1999/xlink" contentStyleType="text/css" height="192px" preserveAspectRatio="none" style="width:471px;height:192px;background:#FFFFFF;" version="1.1" viewBox="0 0 471 192" width="471px" zoomAndPan="magnify"><defs/><g><!--entity C--><g id="elem_C"><rect fill="#F1F1F1" height="46.2969" rx="2.5" ry="2.5" style="stroke:#181818;stroke-width:0.5;" width="128" x="7" y="7"/><rect fill="#F1F1F1" height="10" style="stroke:#181818;stroke-width:0.5;" width="15" x="115" y="12"/><rect fill="#F1F1F1" height="2" style="stroke:#181818;stroke-width:0.5;" width="4" x="113" y="14"/><rect fill="#F1F1F1" height="2" style="stroke:#181818;stroke-width:0.5;" width="4" x="113" y="18"/><text fill="#000000" font-family="sans-serif" font-size="14" lengthAdjust="spacing" textLength="88" x="22" y="39.9951">User Service</text></g><!--entity udb--><g id="elem_udb"><path d="M35,140 C35,130 71,130 71,130 C71,130 107,130 107,140 L107,165.2969 C107,175.2969 71,175.2969 71,175.2969 C71,175.2969 35,175.2969 35,165.2969 L35,140 " fill="#F1F1F1" style="stroke:#181818;stroke-width:0.5;"/><path d="M35,140 C35,150 71,150 71,150 C71,150 107,150 107,140 " fill="none" style="stroke:#181818;stroke-width:0.5;"/><text fill="#000000" font-family="sans-serif" font-size="14" lengthAdjust="spacing" textLength="52" x="45" y="166.9951">UserDB</text></g><!--entity University SSO (external)--><g id="elem_University SSO (external)"><rect fill="#F1F1F1" height="46.2969" rx="2.5" ry="2.5" style="stroke:#181818;stroke-width:0.5;" width="218" x="247" y="7"/><rect fill="#F1F1F1" height="10" style="stroke:#181818;stroke-width:0.5;" width="15" x="445" y="12"/><rect fill="#F1F1F1" height="2" style="stroke:#181818;stroke-width:0.5;" width="4" x="443" y="14"/><rect fill="#F1F1F1" height="2" style="stroke:#181818;stroke-width:0.5;" width="4" x="443" y="18"/><text fill="#000000" font-family="sans-serif" font-size="14" lengthAdjust="spacing" textLength="178" x="262" y="39.9951">University SSO (external)</text></g><!--link C to udb--><g id="link_C_udb"><path d="M71,53.102 C71,74.98 71,102.258 71,123.944 " fill="none" id="C-to-udb" style="stroke:#181818;stroke-width:1.0;stroke-dasharray:7.0,7.0;"/><polygon fill="#181818" points="71,129.944,75,120.944,71,124.944,67,120.944,71,129.944" style="stroke:#181818;stroke-width:1.0;"/><text fill="#000000" font-family="sans-serif" font-size="13" lengthAdjust="spacing" textLength="30" x="72" y="96.0669">uses</text></g><!--link C to University SSO (external)--><g id="link_C_University SSO (external)"><path d="M135.315,30 C168.232,30 203.211,30 240.889,30 " fill="none" id="C-to-University SSO (external)" style="stroke:#181818;stroke-width:1.0;"/><polygon fill="#181818" points="246.889,30,237.889,26,241.889,30,237.889,34,246.889,30" style="stroke:#181818;stroke-width:1.0;"/><text fill="#000000" font-family="sans-serif" font-size="13" lengthAdjust="spacing" textLength="75" x="153.5" y="23.0669">depends on</text></g><!--SRC=[5San3eCm44JHtgUOaXHm00gAa9x2ea8KItOAIz62l8OajqzS_lUNsPaHcQ_qv0fnZ46bo2PErFUuLpnr2oCwtT_M3RNGutHw-6ixO9ajNSoUoXSnJcZuASmchzlQAm-QEdRx0G00]--></g></svg>