<?xml version="1.0" encoding="us-ascii" standalone="no"?><svg xmlns="http://www.w3.org/2000/svg" xmlns:xlink="http://www.w3.org/1999/xlink" contentStyleType="text/css" height="182px" preserveAspectRatio="none" style="width:401px;height:182px;background:#FFFFFF;" version="1.1" viewBox="0 0 401 182" width="401px" zoomAndPan="magnify"><defs/><g><!--entity api--><g id="elem_api"><rect fill="#F1F1F1" height="46.2969" rx="2.5" ry="2.5" style="stroke:#181818;stroke-width:0.5;" width="129" x="128.5" y="7"/><rect fill="#F1F1F1" height="10" style="stroke:#181818;stroke-width:0.5;" width="15" x="237.5" y="12"/><rect fill="#F1F1F1" height="2" style="stroke:#181818;stroke-width:0.5;" width="4" x="235.5" y="14"/><rect fill="#F1F1F1" height="2" style="stroke:#181818;stroke-width:0.5;" width="4" x="235.5" y="18"/><text fill="#000000" font-family="sans-serif" font-size="14" lengthAdjust="spacing" textLength="89" x="143.5" y="39.9951">API Gateway</text></g><!--entity Platform Service--><g id="elem_Platform Service"><rect fill="#F1F1F1" height="46.2969" rx="2.5" ry="2.5" style="stroke:#181818;stroke-width:0.5;" width="160" x="7" y="130"/><rect fill="#F1F1F1" height="10" style="stroke:#181818;stroke-width:0.5;" width="15" x="147" y="135"/><rect fill="#F1F1F1" height="2" style="stroke:#181818;stroke-width:0.5;" width="4" x="145" y="137"/><rect fill="#F1F1F1" height="2" style="stroke:#181818;stroke-width:0.5;" width="4" x="145" y="141"/><text fill="#000000" font-family="sans-serif" font-size="14" lengthAdjust="spacing" textLength="120" x="22" y="162.9951">Platform Service</text></g><!--entity Notitification Service--><g id="elem_Notitification Service"><rect fill="#F1F1F1" height="46.2969" rx="2.5" ry="2.5" style="stroke:#181818;stroke-width:0.5;" width="193" x="202.5" y="130"/><rect fill="#F1F1F1" height="10" style="stroke:#181818;stroke-width:0.5;" width="15" x="375.5" y="135"/><rect fill="#F1F1F1" height="2" style="stroke:#181818;stroke-width:0.5;" width="4" x="373.5" y="137"/><rect fill="#F1F1F1" height="2" style="stroke:#181818;stroke-width:0.5;" width="4" x="373.5" y="141"/><text fill="#000000" font-family="sans-serif" font-size="14" lengthAdjust="spacing" textLength="153" x="217.5" y="162.9951">Notitification Service</text></g><!--link api to Platform Service--><g id="link_api_Platform Service"><path d="M173.558,53.193 C154.432,75.026 129.3557,103.6508 110.2725,125.4343 " fill="none" id="api-to-Platform Service" style="stroke:#181818;stroke-width:1.0;"/><polygon fill="#181818" points="106.3188,129.9474,115.2581,125.8135,109.6135,126.1865,109.2406,120.5419,106.3188,129.9474" style="stroke:#181818;stroke-width:1.0;"/><text fill="#000000" font-family="sans-serif" font-size="13" lengthAdjust="spacing" textLength="32" x="148" y="96.0669">tests</text></g><!--link api to Notitification Service--><g id="link_api_Notitification Service"><path d="M212.442,53.193 C231.568,75.026 256.6443,103.6507 275.7273,125.4342 " fill="none" id="api-to-Notitification Service" style="stroke:#181818;stroke-width:1.0;"/><polygon fill="#181818" points="279.681,129.9474,276.7593,120.5419,276.3863,126.1864,270.7417,125.8134,279.681,129.9474" style="stroke:#181818;stroke-width:1.0;"/><text fill="#000000" font-family="sans-serif" font-size="13" lengthAdjust="spacing" textLength="32" x="254" y="96.0669">tests</text></g><!--SRC=[YtOCy5HmJon9BK-iZ5L8B5P8BCZauW8IkYdvvNcwTWhH0Jc99MdvHRaAmQb5PPd9gR4ALWebgSKbnIYg_F9BCaioqpAJ4qioy_Cmr080]--></g></svg>