<?xml version="1.0" encoding="us-ascii" standalone="no"?><svg xmlns="http://www.w3.org/2000/svg" xmlns:xlink="http://www.w3.org/1999/xlink" contentStyleType="text/css" height="182px" preserveAspectRatio="none" style="width:447px;height:182px;background:#FFFFFF;" version="1.1" viewBox="0 0 447 182" width="447px" zoomAndPan="magnify"><defs/><g><!--entity api--><g id="elem_api"><rect fill="#F1F1F1" height="46.2969" rx="2.5" ry="2.5" style="stroke:#181818;stroke-width:0.5;" width="129" x="160" y="7"/><rect fill="#F1F1F1" height="10" style="stroke:#181818;stroke-width:0.5;" width="15" x="269" y="12"/><rect fill="#F1F1F1" height="2" style="stroke:#181818;stroke-width:0.5;" width="4" x="267" y="14"/><rect fill="#F1F1F1" height="2" style="stroke:#181818;stroke-width:0.5;" width="4" x="267" y="18"/><text fill="#000000" font-family="sans-serif" font-size="14" lengthAdjust="spacing" textLength="89" x="175" y="39.9951">API Gateway</text></g><!--entity Static Analysis Service--><g id="elem_Static Analysis Service"><rect fill="#F1F1F1" height="46.2969" rx="2.5" ry="2.5" style="stroke:#181818;stroke-width:0.5;" width="201" x="7" y="130"/><rect fill="#F1F1F1" height="10" style="stroke:#181818;stroke-width:0.5;" width="15" x="188" y="135"/><rect fill="#F1F1F1" height="2" style="stroke:#181818;stroke-width:0.5;" width="4" x="186" y="137"/><rect fill="#F1F1F1" height="2" style="stroke:#181818;stroke-width:0.5;" width="4" x="186" y="141"/><text fill="#000000" font-family="sans-serif" font-size="14" lengthAdjust="spacing" textLength="161" x="22" y="162.9951">Static Analysis Service</text></g><!--entity Build and Test Service--><g id="elem_Build and Test Service"><rect fill="#F1F1F1" height="46.2969" rx="2.5" ry="2.5" style="stroke:#181818;stroke-width:0.5;" width="198" x="243.5" y="130"/><rect fill="#F1F1F1" height="10" style="stroke:#181818;stroke-width:0.5;" width="15" x="421.5" y="135"/><rect fill="#F1F1F1" height="2" style="stroke:#181818;stroke-width:0.5;" width="4" x="419.5" y="137"/><rect fill="#F1F1F1" height="2" style="stroke:#181818;stroke-width:0.5;" width="4" x="419.5" y="141"/><text fill="#000000" font-family="sans-serif" font-size="14" lengthAdjust="spacing" textLength="158" x="258.5" y="162.9951">Build and Test Service</text></g><!--link api to Static Analysis Service--><g id="link_api_Static Analysis Service"><path d="M203.04,53.193 C181.93,75.026 154.0577,103.8505 132.9947,125.634 " fill="none" id="api-to-Static Analysis Service" style="stroke:#181818;stroke-width:1.0;"/><polygon fill="#181818" points="128.824,129.9474,137.9556,126.2578,132.2996,126.3529,132.2045,120.6969,128.824,129.9474" style="stroke:#181818;stroke-width:1.0;"/><text fill="#000000" font-family="sans-serif" font-size="13" lengthAdjust="spacing" textLength="32" x="174.5" y="96.0669">tests</text></g><!--link api to Build and Test Service--><g id="link_api_Build and Test Service"><path d="M246.143,53.193 C267.434,75.026 295.562,103.8683 316.805,125.6518 " fill="none" id="api-to-Build and Test Service" style="stroke:#181818;stroke-width:1.0;"/><polygon fill="#181818" points="320.994,129.9474,317.5742,120.7113,317.5032,126.3677,311.8467,126.2967,320.994,129.9474" style="stroke:#181818;stroke-width:1.0;"/><text fill="#000000" font-family="sans-serif" font-size="13" lengthAdjust="spacing" textLength="32" x="292.5" y="96.0669">tests</text></g><!--SRC=[YtOCy5HmJon9BK-iZ5L8B5P8BCZauk82ahef-ULvkdOAqS4bYIMPoGgEUOavbSMPnGh1gKLbcScfiGfM2YMfnIN5A8gTIZDpKXGIyr8KGe1o66e1]--></g></svg>