<?xml version="1.0" encoding="us-ascii" standalone="no"?><svg xmlns="http://www.w3.org/2000/svg" xmlns:xlink="http://www.w3.org/1999/xlink" contentStyleType="text/css" height="182px" preserveAspectRatio="none" style="width:148px;height:182px;background:#FFFFFF;" version="1.1" viewBox="0 0 148 182" width="148px" zoomAndPan="magnify"><defs/><g><!--entity api--><g id="elem_api"><rect fill="#F1F1F1" height="46.2969" rx="2.5" ry="2.5" style="stroke:#181818;stroke-width:0.5;" width="129" x="10" y="7"/><rect fill="#F1F1F1" height="10" style="stroke:#181818;stroke-width:0.5;" width="15" x="119" y="12"/><rect fill="#F1F1F1" height="2" style="stroke:#181818;stroke-width:0.5;" width="4" x="117" y="14"/><rect fill="#F1F1F1" height="2" style="stroke:#181818;stroke-width:0.5;" width="4" x="117" y="18"/><text fill="#000000" font-family="sans-serif" font-size="14" lengthAdjust="spacing" textLength="89" x="25" y="39.9951">API Gateway</text></g><!--entity Website CDN--><g id="elem_Website CDN"><rect fill="#F1F1F1" height="46.2969" rx="2.5" ry="2.5" style="stroke:#181818;stroke-width:0.5;" width="135" x="7" y="130"/><rect fill="#F1F1F1" height="10" style="stroke:#181818;stroke-width:0.5;" width="15" x="122" y="135"/><rect fill="#F1F1F1" height="2" style="stroke:#181818;stroke-width:0.5;" width="4" x="120" y="137"/><rect fill="#F1F1F1" height="2" style="stroke:#181818;stroke-width:0.5;" width="4" x="120" y="141"/><text fill="#000000" font-family="sans-serif" font-size="14" lengthAdjust="spacing" textLength="95" x="22" y="162.9951">Website CDN</text></g><!--link api to Website CDN--><g id="link_api_Website CDN"><path d="M74.5,53.193 C74.5,75.026 74.5,102.1639 74.5,123.9474 " fill="none" id="api-to-Website CDN" style="stroke:#181818;stroke-width:1.0;"/><polygon fill="#181818" points="74.5,129.9474,78.5,120.9474,74.5,124.9474,70.5,120.9474,74.5,129.9474" style="stroke:#181818;stroke-width:1.0;"/><text fill="#000000" font-family="sans-serif" font-size="13" lengthAdjust="spacing" textLength="32" x="75.5" y="96.0669">tests</text></g><!--SRC=[YtOCy5HmJon9BK-iZ5L8B5P8BCZauk82ahef-ULvkdOAqU6fISMP9QaApYv-iGfM2YMfnIN50000]--></g></svg>