<?xml version="1.0" encoding="us-ascii" standalone="no"?><svg xmlns="http://www.w3.org/2000/svg" xmlns:xlink="http://www.w3.org/1999/xlink" contentStyleType="text/css" height="182px" preserveAspectRatio="none" style="width:1381px;height:182px;background:#FFFFFF;" version="1.1" viewBox="0 0 1381 182" width="1381px" zoomAndPan="magnify"><defs/><g><!--entity api--><g id="elem_api"><rect fill="#F1F1F1" height="46.2969" rx="2.5" ry="2.5" style="stroke:#181818;stroke-width:0.5;" width="129" x="701.5" y="7"/><rect fill="#F1F1F1" height="10" style="stroke:#181818;stroke-width:0.5;" width="15" x="810.5" y="12"/><rect fill="#F1F1F1" height="2" style="stroke:#181818;stroke-width:0.5;" width="4" x="808.5" y="14"/><rect fill="#F1F1F1" height="2" style="stroke:#181818;stroke-width:0.5;" width="4" x="808.5" y="18"/><text fill="#000000" font-family="sans-serif" font-size="14" lengthAdjust="spacing" textLength="89" x="716.5" y="39.9951">API Gateway</text></g><!--entity Platform Service--><g id="elem_Platform Service"><rect fill="#F1F1F1" height="46.2969" rx="2.5" ry="2.5" style="stroke:#181818;stroke-width:0.5;" width="160" x="7" y="130"/><rect fill="#F1F1F1" height="10" style="stroke:#181818;stroke-width:0.5;" width="15" x="147" y="135"/><rect fill="#F1F1F1" height="2" style="stroke:#181818;stroke-width:0.5;" width="4" x="145" y="137"/><rect fill="#F1F1F1" height="2" style="stroke:#181818;stroke-width:0.5;" width="4" x="145" y="141"/><text fill="#000000" font-family="sans-serif" font-size="14" lengthAdjust="spacing" textLength="120" x="22" y="162.9951">Platform Service</text></g><!--entity Notitification Service--><g id="elem_Notitification Service"><rect fill="#F1F1F1" height="46.2969" rx="2.5" ry="2.5" style="stroke:#181818;stroke-width:0.5;" width="193" x="202.5" y="130"/><rect fill="#F1F1F1" height="10" style="stroke:#181818;stroke-width:0.5;" width="15" x="375.5" y="135"/><rect fill="#F1F1F1" height="2" style="stroke:#181818;stroke-width:0.5;" width="4" x="373.5" y="137"/><rect fill="#F1F1F1" height="2" style="stroke:#181818;stroke-width:0.5;" width="4" x="373.5" y="141"/><text fill="#000000" font-family="sans-serif" font-size="14" lengthAdjust="spacing" textLength="153" x="217.5" y="162.9951">Notitification Service</text></g><!--entity Static Analysis Service--><g id="elem_Static Analysis Service"><rect fill="#F1F1F1" height="46.2969" rx="2.5" ry="2.5" style="stroke:#181818;stroke-width:0.5;" width="201" x="430.5" y="130"/><rect fill="#F1F1F1" height="10" style="stroke:#181818;stroke-width:0.5;" width="15" x="611.5" y="135"/><rect fill="#F1F1F1" height="2" style="stroke:#181818;stroke-width:0.5;" width="4" x="609.5" y="137"/><rect fill="#F1F1F1" height="2" style="stroke:#181818;stroke-width:0.5;" width="4" x="609.5" y="141"/><text fill="#000000" font-family="sans-serif" font-size="14" lengthAdjust="spacing" textLength="161" x="445.5" y="162.9951">Static Analysis Service</text></g><!--entity Build and Test Service--><g id="elem_Build and Test Service"><rect fill="#F1F1F1" height="46.2969" rx="2.5" ry="2.5" style="stroke:#181818;stroke-width:0.5;" width="198" x="667" y="130"/><rect fill="#F1F1F1" height="10" style="stroke:#181818;stroke-width:0.5;" width="15" x="845" y="135"/><rect fill="#F1F1F1" height="2" style="stroke:#181818;stroke-width:0.5;" width="4" x="843" y="137"/><rect fill="#F1F1F1" height="2" style="stroke:#181818;stroke-width:0.5;" width="4" x="843" y="141"/><text fill="#000000" font-family="sans-serif" font-size="14" lengthAdjust="spacing" textLength="158" x="682" y="162.9951">Build and Test Service</text></g><!--entity User Service--><g id="elem_User Service"><rect fill="#F1F1F1" height="46.2969" rx="2.5" ry="2.5" style="stroke:#181818;stroke-width:0.5;" width="128" x="900" y="130"/><rect fill="#F1F1F1" height="10" style="stroke:#181818;stroke-width:0.5;" width="15" x="1008" y="135"/><rect fill="#F1F1F1" height="2" style="stroke:#181818;stroke-width:0.5;" width="4" x="1006" y="137"/><rect fill="#F1F1F1" height="2" style="stroke:#181818;stroke-width:0.5;" width="4" x="1006" y="141"/><text fill="#000000" font-family="sans-serif" font-size="14" lengthAdjust="spacing" textLength="88" x="915" y="162.9951">User Service</text></g><!--entity Badge Service--><g id="elem_Badge Service"><rect fill="#F1F1F1" height="46.2969" rx="2.5" ry="2.5" style="stroke:#181818;stroke-width:0.5;" width="142" x="1063" y="130"/><rect fill="#F1F1F1" height="10" style="stroke:#181818;stroke-width:0.5;" width="15" x="1185" y="135"/><rect fill="#F1F1F1" height="2" style="stroke:#181818;stroke-width:0.5;" width="4" x="1183" y="137"/><rect fill="#F1F1F1" height="2" style="stroke:#181818;stroke-width:0.5;" width="4" x="1183" y="141"/><text fill="#000000" font-family="sans-serif" font-size="14" lengthAdjust="spacing" textLength="102" x="1078" y="162.9951">Badge Service</text></g><!--entity Website CDN--><g id="elem_Website CDN"><rect fill="#F1F1F1" height="46.2969" rx="2.5" ry="2.5" style="stroke:#181818;stroke-width:0.5;" width="135" x="1240.5" y="130"/><rect fill="#F1F1F1" height="10" style="stroke:#181818;stroke-width:0.5;" width="15" x="1355.5" y="135"/><rect fill="#F1F1F1" height="2" style="stroke:#181818;stroke-width:0.5;" width="4" x="1353.5" y="137"/><rect fill="#F1F1F1" height="2" style="stroke:#181818;stroke-width:0.5;" width="4" x="1353.5" y="141"/><text fill="#000000" font-family="sans-serif" font-size="14" lengthAdjust="spacing" textLength="95" x="1255.5" y="162.9951">Website CDN</text></g><!--link api to Platform Service--><g id="link_api_Platform Service"><path d="M701.318,40.895 C593.818,57.591 371.719,93.1596 185,130 C179.183,131.1476 179.0539,131.1408 173.0219,132.4125 " fill="none" id="api-to-Platform Service" style="stroke:#181818;stroke-width:1.0;"/><polygon fill="#181818" points="167.151,133.6502,176.7826,135.7075,172.0435,132.6187,175.1323,127.8796,167.151,133.6502" style="stroke:#181818;stroke-width:1.0;"/><text fill="#000000" font-family="sans-serif" font-size="13" lengthAdjust="spacing" textLength="32" x="441" y="96.0669">tests</text></g><!--link api to Notitification Service--><g id="link_api_Notitification Service"><path d="M701.066,47.825 C618.36,69.254 481.0492,104.831 389.7512,128.4864 " fill="none" id="api-to-Notitification Service" style="stroke:#181818;stroke-width:1.0;"/><polygon fill="#181818" points="383.943,129.9913,393.6586,131.6061,388.7832,128.7372,391.652,123.8618,383.943,129.9913" style="stroke:#181818;stroke-width:1.0;"/><text fill="#000000" font-family="sans-serif" font-size="13" lengthAdjust="spacing" textLength="32" x="562" y="96.0669">tests</text></g><!--link api to Static Analysis Service--><g id="link_api_Static Analysis Service"><path d="M723.171,53.053 C680.807,74.865 621.6654,105.3168 579.2664,127.148 " fill="none" id="api-to-Static Analysis Service" style="stroke:#181818;stroke-width:1.0;"/><polygon fill="#181818" points="573.932,129.8947,583.7647,129.331,578.3773,127.6058,580.1025,122.2184,573.932,129.8947" style="stroke:#181818;stroke-width:1.0;"/><text fill="#000000" font-family="sans-serif" font-size="13" lengthAdjust="spacing" textLength="32" x="664" y="96.0669">tests</text></g><!--link api to Build and Test Service--><g id="link_api_Build and Test Service"><path d="M766,53.193 C766,75.026 766,102.1639 766,123.9474 " fill="none" id="api-to-Build and Test Service" style="stroke:#181818;stroke-width:1.0;"/><polygon fill="#181818" points="766,129.9474,770,120.9474,766,124.9474,762,120.9474,766,129.9474" style="stroke:#181818;stroke-width:1.0;"/><text fill="#000000" font-family="sans-serif" font-size="13" lengthAdjust="spacing" textLength="32" x="767" y="96.0669">tests</text></g><!--link api to User Service--><g id="link_api_User Service"><path d="M802.316,53.193 C838.042,75.026 887.1483,105.0352 922.7943,126.8187 " fill="none" id="api-to-User Service" style="stroke:#181818;stroke-width:1.0;"/><polygon fill="#181818" points="927.914,129.9474,922.3202,121.8412,923.6476,127.3402,918.1487,128.6675,927.914,129.9474" style="stroke:#181818;stroke-width:1.0;"/><text fill="#000000" font-family="sans-serif" font-size="13" lengthAdjust="spacing" textLength="32" x="878" y="96.0669">tests</text></g><!--link api to Badge Service--><g id="link_api_Badge Service"><path d="M830.522,52.215 C896.897,74.04 994.1172,106.006 1061.3602,128.1166 " fill="none" id="api-to-Badge Service" style="stroke:#181818;stroke-width:1.0;"/><polygon fill="#181818" points="1067.06,129.9908,1059.7598,123.3797,1062.3102,128.429,1057.2609,130.9794,1067.06,129.9908" style="stroke:#181818;stroke-width:1.0;"/><text fill="#000000" font-family="sans-serif" font-size="13" lengthAdjust="spacing" textLength="32" x="974" y="96.0669">tests</text></g><!--link api to Website CDN--><g id="link_api_Website CDN"><path d="M830.779,44.083 C919.38,62.2 1083.2,96.4967 1222,130 C1227.99,131.4465 1228.3885,131.5253 1234.6185,133.08 " fill="none" id="api-to-Website CDN" style="stroke:#181818;stroke-width:1.0;"/><polygon fill="#181818" points="1240.44,134.5328,1232.6763,128.4727,1235.5888,133.3222,1230.7393,136.2347,1240.44,134.5328" style="stroke:#181818;stroke-width:1.0;"/><text fill="#000000" font-family="sans-serif" font-size="13" lengthAdjust="spacing" textLength="32" x="1086" y="96.0669">tests</text></g><!--SRC=[VSqn2i9048NXFgUO2-G25aAY83OX4CLYIJ7kJcHWtPMTqP3RkvLWCyrh_W-UwyOpd51fnMq65C0NDqsTDkGrjNjmOqHTSdd2HEN3dcROWPAe_AaXAoilx54v9zjEMf67Bc7SXCN6_PjZ04m1BhLPrbs5YWbw30-oxsvq5rQ2mt7uWIy0]--></g></svg>